<?xml version="1.0" encoding="iso-8859-1"?>
<!-- Generator: Adobe Illustrator 19.0.0, SVG Export Plug-In . SVG Version: 6.00 Build 0)  -->
<svg version="1.1" id="Capa_1" xmlns="http://www.w3.org/2000/svg" xmlns:xlink="http://www.w3.org/1999/xlink" x="0px" y="0px"
	 viewBox="0 0 512 512" style="enable-background:new 0 0 512 512;" xml:space="preserve">
<path style="fill:#DB8137;" d="M438.427,504.501H73.574c-2.761,0-5-2.239-5-5V38.216c0-2.761,2.239-5,5-5h364.853
	c2.761,0,5,2.239,5,5v461.286C443.427,502.262,441.188,504.501,438.427,504.501z"/>
<path style="fill:#E9EFF4;" d="M399.358,445.179H112.643c-2.761,0-5-2.239-5-5V78.212c0-2.761,2.239-5,5-5h286.714
	c2.761,0,5,2.239,5,5v361.967C404.357,442.94,402.119,445.179,399.358,445.179z"/>
<path style="fill:#D3DCE2;" d="M404.357,78.212v361.967c0,2.76-2.24,5-5,5h-35.237c2.76,0,5-2.24,5-5V78.212c0-2.76-2.24-5-5-5
	h35.237C402.117,73.212,404.357,75.452,404.357,78.212z"/>
<path style="fill:#68C4FB;" d="M344.493,93.328H167.508c-2.761,0-5-2.239-5-5V12.499c0-2.761,2.239-5,5-5h176.984
	c2.761,0,5,2.239,5,5v75.829C349.492,91.089,347.254,93.328,344.493,93.328z"/>
<path style="fill:#42A7F9;" d="M349.492,12.498v75.833c0,2.76-2.24,5-5,5h-27.338c2.76,0,5-2.24,5-5V12.498c0-2.76-2.24-5-5-5
	h27.338C347.252,7.498,349.492,9.738,349.492,12.498z"/>
<g>
	<path style="fill:#F5CA26;" d="M283.774,206.075c0.003-0.359-0.002-0.721-0.013-1.083c-0.458-14.714-12.537-26.633-27.257-26.894
		c-15.57-0.276-28.278,12.263-28.278,27.77c0,0.061,0,0.123,0.001,0.184c0.032,4.916-2.885,9.309-7.393,11.268
		c-9.972,4.333-16.904,14.344-16.709,25.956c0.251,14.845,12.346,26.985,27.19,27.288c6.572,0.134,12.635-2.017,17.452-5.711
		c4.256-3.264,10.21-3.264,14.466,0c4.818,3.695,10.881,5.845,17.452,5.711c14.844-0.303,26.939-12.443,27.19-27.288
		c0.196-11.612-6.736-21.623-16.709-25.957C286.666,215.366,283.738,210.983,283.774,206.075z"/>
	<circle style="fill:#F5CA26;" cx="190.883" cy="182.554" r="18.128"/>
	<circle style="fill:#F5CA26;" cx="228.66" cy="144.767" r="18.128"/>
	<circle style="fill:#F5CA26;" cx="321.122" cy="182.554" r="18.128"/>
	<circle style="fill:#F5CA26;" cx="283.335" cy="144.767" r="18.128"/>
</g>
<path d="M438.427,25.717h-81.435V12.499C356.992,5.606,351.386,0,344.494,0H167.509c-6.892,0-12.499,5.606-12.499,12.499v13.218
	H73.574c-6.892,0-12.499,5.606-12.499,12.499v461.286c0,6.892,5.606,12.499,12.499,12.499h42.939c4.142,0,7.499-3.358,7.499-7.499
	s-3.358-7.499-7.499-7.499H76.074V40.715h78.936v24.998h-42.366c-6.892,0-12.499,5.606-12.499,12.499v361.967
	c0,6.892,5.606,12.499,12.499,12.499h286.714c6.892,0,12.499-5.607,12.499-12.499V166.954c0-4.142-3.357-7.499-7.499-7.499
	s-7.499,3.358-7.499,7.499V437.68H115.143V80.712h39.866v7.616c0,6.892,5.606,12.499,12.499,12.499h176.984
	c6.892,0,12.499-5.606,12.499-12.499v-7.616h39.866v32.83c0,4.142,3.357,7.499,7.499,7.499s7.499-3.358,7.499-7.499v-35.33
	c0-6.892-5.606-12.499-12.499-12.499h-42.366V40.715h78.935v456.286H170.508c-4.142,0-7.499,3.358-7.499,7.499
	s3.358,7.499,7.499,7.499h267.918c6.892,0,12.499-5.607,12.499-12.499V38.216C450.926,31.323,445.319,25.717,438.427,25.717z
	 M341.993,85.828H170.008v-70.83h171.985V85.828z"/>
<path d="M231.282,180.706c-6.806,6.686-10.554,15.624-10.554,25.163v0.234c0.012,1.871-1.119,3.575-2.883,4.341
	c-13.132,5.705-21.46,18.643-21.218,32.961c0.317,18.728,15.809,34.276,34.535,34.659c0.237,0.005,0.474,0.007,0.711,0.007
	c7.735,0,15.331-2.567,21.458-7.265c1.571-1.206,3.767-1.205,5.339,0c6.316,4.844,14.199,7.424,22.169,7.258
	c18.726-0.383,34.219-15.931,34.535-34.659c0.242-14.318-8.087-27.256-21.219-32.961c-1.764-0.766-2.895-2.456-2.883-4.307
	c0.004-0.46-0.002-0.923-0.017-1.377c-0.584-18.82-15.791-33.825-34.619-34.159C247.091,170.443,238.087,174.02,231.282,180.706z
	 M276.266,205.236c0.009,0.261,0.011,0.521,0.009,0.779c0,0.002,0,0.004,0,0.006c-0.058,7.876,4.615,15.013,11.905,18.179
	c7.549,3.28,12.338,10.719,12.198,18.951c-0.182,10.762-9.084,19.697-19.844,19.916c-4.68,0.086-9.06-1.346-12.736-4.165
	c-3.474-2.664-7.635-3.995-11.797-3.995c-4.162,0-8.324,1.332-11.796,3.995c-3.677,2.819-8.095,4.269-12.736,4.165
	c-10.76-0.22-19.663-9.154-19.844-19.916c-0.139-8.232,4.649-15.671,12.199-18.951c7.283-3.165,11.956-10.307,11.904-18.206v-0.125
	c0-5.483,2.155-10.62,6.066-14.464c3.912-3.843,9.095-5.934,14.579-5.807C267.011,185.786,275.935,194.592,276.266,205.236z"/>
<path d="M165.254,182.558c0,14.13,11.496,25.625,25.625,25.625s25.625-11.496,25.625-25.625c0-14.129-11.495-25.625-25.625-25.625
	S165.254,168.428,165.254,182.558z M201.504,182.558c0,5.859-4.767,10.626-10.626,10.626s-10.626-4.768-10.626-10.626
	c0-5.858,4.768-10.626,10.626-10.626S201.504,176.698,201.504,182.558z"/>
<path d="M228.664,119.147c-14.13,0-25.625,11.495-25.625,25.625s11.496,25.625,25.625,25.625c14.129,0,25.625-11.496,25.625-25.625
	S242.794,119.147,228.664,119.147z M228.664,155.399c-5.859,0-10.626-4.768-10.626-10.626c0-5.858,4.768-10.626,10.626-10.626
	c5.858,0,10.626,4.767,10.626,10.626C239.29,150.632,234.523,155.399,228.664,155.399z"/>
<path d="M321.123,208.183c14.13,0,25.625-11.496,25.625-25.625c0-14.129-11.495-25.625-25.625-25.625
	c-14.13,0-25.625,11.495-25.625,25.625C295.498,196.688,306.993,208.183,321.123,208.183z M321.123,171.932
	c5.858,0,10.626,4.767,10.626,10.626c0,5.859-4.768,10.626-10.626,10.626c-5.858,0-10.626-4.768-10.626-10.626
	C310.497,176.699,315.264,171.932,321.123,171.932z"/>
<path d="M283.337,119.147c-14.13,0-25.625,11.495-25.625,25.625s11.495,25.625,25.625,25.625c14.13,0,25.625-11.496,25.625-25.625
	S297.467,119.147,283.337,119.147z M283.337,155.399c-5.858,0-10.626-4.768-10.626-10.626c0-5.858,4.768-10.626,10.626-10.626
	c5.858,0,10.626,4.767,10.626,10.626C293.963,150.632,289.196,155.399,283.337,155.399z"/>
<path d="M356.741,298.192H155.26c-4.142,0-7.499,3.358-7.499,7.499c0,4.142,3.358,7.499,7.499,7.499h201.482
	c4.143,0,7.499-3.358,7.499-7.499C364.241,301.55,360.884,298.192,356.741,298.192z"/>
<path d="M335.425,346.688c4.143,0,7.499-3.358,7.499-7.499s-3.357-7.499-7.499-7.499h-158.85c-4.142,0-7.499,3.358-7.499,7.499
	s3.358,7.499,7.499,7.499H335.425z"/>
<path d="M156.507,372.685c0,4.142,3.358,7.499,7.499,7.499h183.988c4.143,0,7.499-3.358,7.499-7.499s-3.357-7.499-7.499-7.499
	H164.007C159.865,365.186,156.507,368.544,156.507,372.685z"/>
<path d="M147.76,406.182c0,4.142,3.358,7.499,7.499,7.499h201.482c4.143,0,7.499-3.358,7.499-7.499c0-4.142-3.357-7.499-7.499-7.499
	H155.26C151.118,398.683,147.76,402.041,147.76,406.182z"/>
<g>
</g>
<g>
</g>
<g>
</g>
<g>
</g>
<g>
</g>
<g>
</g>
<g>
</g>
<g>
</g>
<g>
</g>
<g>
</g>
<g>
</g>
<g>
</g>
<g>
</g>
<g>
</g>
<g>
</g>
</svg>
