<svg id="Capa_1" enable-background="new 0 0 512.054 512.054" height="512" viewBox="0 0 512.054 512.054" width="512" xmlns="http://www.w3.org/2000/svg"><g><g><g><g><path d="m164.832 472.261c-17.697 4.843-31.241 4.843-39.249 4.843-20.762 0-55.364-5.04-84.134-33.701-42.61-42.398-33.515-98.631-32.328-104.858 1.582-8.598 9.886-14.231 18.488-12.551 8.601 1.581 14.236 9.883 12.556 18.481-.297 1.779-8.107 45.066 23.53 76.593 29.758 29.55 69.205 24.411 73.654 23.719z" fill="#fed2a4"/></g><path d="m131.592 468.682 7.985 7.982c7.003-.537 15.493-1.731 25.255-4.402l-27.484-27.475c-1.656.258-8.167 1.129-17.219.6.007.055.014.109.021.164 1.131 8.762 5.192 16.884 11.442 23.131z" fill="#ffbd86"/><path d="m225.238 443.798h69.897c16.906 0 30.549 13.441 30.549 29.945v21.347h-130.501c-17.301 0-31.439-13.737-31.439-30.736v-11.364z" fill="#fed2a4"/><path d="m137.348 444.787c-1.716-8.227-3.571-19.908-3.856-33.997 0 0-1.101-22.321 4.745-45.56 16.906-67.204 46.664-103.178 69.897-123.24 48.641-42.2 95.701-39.038 116.957-86.574 6.13-13.639 15.917-44.473 21.849-78.174 2.076-11.761 3.263-21.545 4.053-28.463h56.946c6.921 0 13.446 3.36 17.202 9.092l11.073 16.307c2.966 4.447 7.613 7.511 12.951 8.598l51.607 10.871c2.175.494 3.757 2.372 3.757 4.645v22.533c0 18.975-14.929 34.788-34.306 36.27l-23.511 1.777c-2.837.214-4.908 2.767-4.526 5.586 3.539 26.149 13.745 120.898-31.182 161.536-12.111 10.955-24.65 20.742-52.102 37.951-18.107 11.351-33.913 19.521-45.082 24.905l-61.988 54.949-87.001 28.463c-4.458-2.37-10.615-6.291-16.648-12.546-5.22-5.414-8.643-10.807-10.835-14.929z" fill="#fed2a4"/><path d="m295.135 443.798h-29.659c16.906 0 30.549 13.441 30.549 29.945v21.347h29.659v-21.347c0-16.504-13.643-29.945-30.549-29.945z" fill="#ffbd86"/><path d="m339.366 287.871c-6.72 3.545-8.002 12.756-2.347 17.829 10.719 9.616 18.026 23.249 17.83 37.787v137.867c0 8.302 6.921 15.022 15.423 15.022h61.889v-18.086c0-13.836-11.172-25.004-25.112-25.399v-182.484c0-8.282-8.807-13.593-16.132-9.729z" fill="#fed2a4"/><path d="m374.41 73.743c3.645-3.793 4.837-9.319 3.082-14.278l-7.319-20.67c-1.483-4.151-4.745-7.412-8.898-8.895l-37.964-13.737c-6.031-2.174-12.16 3.163-10.677 9.389l8.876 39.186c.402 1.777 1.288 3.408 2.559 4.713l20.206 20.743c3.944 4.049 10.458 4.027 14.374-.049z" fill="#fed2a4"/><path d="m377.492 59.466-7.319-20.67c-1.483-4.151-4.745-7.412-8.898-8.895l-37.964-13.737c-3.365-1.213-6.757-.085-8.844 2.228l31.808 11.51c4.152 1.482 7.415 4.744 8.898 8.895 6.242 17.63 2.003 37.273-10.955 50.759l-.281.293.339.348c3.945 4.049 10.458 4.026 14.375-.05l15.76-16.402c3.644-3.795 4.837-9.32 3.081-14.279z" fill="#ffbd86"/><path d="m504.53 120.824v-22.533c0-2.273-1.582-4.151-3.757-4.645l-24.12-5.081.985 16.644c.198 3.953 2.669 7.511 6.327 9.092l20.479 8.858c.051-.773.086-1.55.086-2.335z" fill="#aa6a51"/><path d="m251.833 325.203c-2.36 0-4.689.133-6.979.392-2.092.236-2.446 3.093-.487 3.865 22.256 8.767 37.971 30.126 37.971 55.041 0 21.589-11.806 40.497-29.437 50.866-3.045 1.79-3.591 5.959-1.068 8.432 33.416 0 60.505-26.585 60.505-59.298s-27.089-59.298-60.505-59.298z" fill="#ffbd86"/></g></g><path d="m414.548 446.38v-194.212c0-4.142-3.358-7.5-7.5-7.5s-7.5 3.358-7.5 7.5v200.723c0 4.059 3.229 7.382 7.287 7.497 9.995.284 17.825 8.147 17.825 17.902v10.586h-54.389c-4.369 0-7.923-3.375-7.923-7.522v-137.867c0-19.615-10.002-37.583-26.746-48.059l-8.502-5.336c-3.509-2.202-8.138-1.143-10.339 2.366-2.202 3.508-1.143 8.137 2.366 10.339l8.511 5.342c12.342 7.722 19.711 20.937 19.711 35.348v18.739c-9.063 5.441-18.392 10.608-27.866 15.436-3.498-33.631-32.503-59.958-67.651-59.958-37.498 0-68.005 29.965-68.005 66.797 0 4.142 3.358 7.5 7.5 7.5s7.5-3.358 7.5-7.5c0-28.561 23.778-51.797 53.005-51.797s53.005 23.236 53.005 51.797c0 28.562-23.778 51.798-53.005 51.798h-26.595c-4.142 0-7.5 3.358-7.5 7.5s3.358 7.5 7.5 7.5h69.897c12.709 0 23.049 10.069 23.049 22.445v13.847h-123.001c-13.662.037-23.924-10.404-23.939-23.236v-11.365c0-4.142-3.358-7.5-7.5-7.5s-7.5 3.358-7.5 7.5c0 1.962-.057 11.803.075 13.642-13.553 2.966-24.087 2.972-30.737 2.972-21.535 0-52.694-5.467-78.843-31.517-39.996-39.796-31.367-92.284-30.242-98.185.856-4.49 5.253-7.411 9.755-6.532 4.417.863 7.401 5.236 6.551 9.666-.012.061-.037.206-.047.267-1.396 8.215-6.715 50.83 25.653 83.086 32.381 32.154 75.305 26.551 80.091 25.809 3.899-.549 7.178-4.652 6.191-8.947-2.231-10.664-3.476-21.637-3.699-32.614-.001-.07-.004-.145-.007-.214-.01-.213-.964-21.564 4.528-43.364 1.957-7.779 4.163-15.402 6.558-22.657 1.298-3.934-.838-8.174-4.771-9.473-3.932-1.299-8.174.838-9.473 4.771-2.507 7.597-4.815 15.57-6.86 23.697-5.899 23.42-5.061 45.625-4.969 47.646.189 9.045 1.022 18.088 2.473 26.986-12.896.421-38.774-1.709-59.483-22.274-27.699-27.603-22.166-65.688-21.444-69.94 0-.001 0-.003.001-.005 2.492-12.461-6.147-24.766-18.499-27.176-12.544-2.448-24.908 6-27.292 18.508-1.269 6.654-11.078 66.323 34.402 111.575 31.344 31.225 69.482 35.887 89.427 35.887 7.412 0 19.212-.003 34.623-3.465 6.342 12.692 19.635 21.452 34.977 21.452h130.501c4.142 0 7.5-3.358 7.5-7.5v-21.347c0-20.647-17.069-37.445-38.049-37.445h-.423c12.791-10.235 21.74-24.934 24.343-41.662 9.58-4.678 19.05-9.703 28.294-15.016v101.733c0 12.418 10.283 22.522 22.923 22.522h61.889c4.142 0 7.5-3.358 7.5-7.5v-18.086c0-15.45-10.566-28.316-25.112-31.91zm97.483-348.089c0-5.756-3.945-10.673-9.594-11.958-.039-.009-.078-.017-.117-.025-.207.606-51.657-10.881-51.657-10.881-3.432-.699-6.347-2.621-8.243-5.462l-11.041-16.26c-5.127-7.782-13.884-12.426-23.438-12.426h-28.934l-1.772-5.005c-2.248-6.291-7.146-11.188-13.409-13.423l-37.972-13.743c-5.421-1.954-11.46-.781-15.759 3.062-4.251 3.799-6.075 9.593-4.777 15.039l9.491 41.904c.306 1.349.978 2.586 1.942 3.577l19.494 20.012c-4.468 21.801-10.343 42.525-18 59.651-11.362 25.41-30.893 34.956-55.621 47.042-18.076 8.834-38.563 18.848-59.391 36.917-22.441 19.378-40.775 44.673-54.494 75.183-1.699 3.778-.013 8.217 3.765 9.916 3.699 1.663 8.197.059 9.916-3.765 12.814-28.499 29.845-52.044 50.63-69.993 19.36-16.796 38.911-26.352 56.161-34.783 26.371-12.889 49.145-24.02 62.721-54.38 1.792-3.985 3.876-9.362 6.079-15.79 14.055 10.609 29.064 19.469 44.755 26.396 17.351 7.649 35.534 13.071 54.131 16.162 2.389 28.945 2.81 73.055-11.245 106.251-1.615 3.814.168 8.216 3.982 9.831 3.73 1.579 8.196-.122 9.831-3.982 7.903-18.665 19.665-60.37 10.511-131.21l20.821-1.576c21.738-1.663 39.045-18.75 41.038-39.706.317-3.328.196-23.024.196-26.575zm-42.372 51.325-23.491 1.777c-3.411.25-6.602 1.917-8.755 4.575-2.151 2.656-3.12 6.122-2.658 9.495.178 1.315.364 2.759.552 4.285-15.95-2.974-31.548-7.791-46.486-14.376-16.205-7.153-31.65-16.533-45.983-27.903 2.067-7.021 4.132-14.701 6.07-22.834 2.68.98 5.691.403 7.811-1.663 2.967-2.891 3.029-7.639.139-10.606l-6.961-7.146c-.073-.078-.147-.154-.223-.229l-20.704-21.253-9.042-39.923c-.137-.437.604-.72.83-.598l37.994 13.749c2.04.728 3.628 2.315 4.349 4.334l10.183 28.759c1.382 3.905 5.67 5.949 9.573 4.566 3.904-1.382 5.949-5.668 4.566-9.573l-3.107-8.774h23.623c4.503 0 8.589 2.132 10.929 5.703.022.035.045.068.068.103l11.038 16.255c4.073 6.106 10.356 10.292 17.645 11.775l21.883 4.61.643 10.861c.339 6.777 4.595 12.901 10.84 15.602l15.166 6.56c-3.027 11.775-13.584 20.881-26.492 21.869zm27.372-37.834-10.09-4.364c-1.029-.445-1.758-1.483-1.817-2.651l-.405-6.838 12.312 2.593zm-92.355-38.382c-4.142 0-7.5 3.357-7.5 7.497 0 4.141 3.358 7.497 7.5 7.497s7.5-3.357 7.5-7.497c0-4.141-3.358-7.497-7.5-7.497z"/></g></svg>