<svg height="511pt" viewBox="0 -6 511.99984 511" width="511pt" xmlns="http://www.w3.org/2000/svg"><path d="m337.019531 318.171875c-27.433593-13.925781-56.335937-23.746094-85.847656-29.472656-13.550781-2.628907-23.40625-14.371094-23.40625-28.175781v-44.65625h-77.996094v44.65625c0 13.804687-9.855469 25.546874-23.40625 28.175781-29.511719 5.722656-58.417969 15.546875-85.847656 29.472656-20.25 10.28125-33.007813 31.0625-33.007813 53.769531v107.542969c0 6.464844 5.242188 11.707031 11.707032 11.707031h350.8125v-119.25c0-22.707031-12.757813-43.488281-33.007813-53.769531zm0 0" fill="#fed6a6"/><path d="m337.019531 318.171875c-27.433593-13.925781-56.335937-23.746094-85.847656-29.472656-13.550781-2.628907-23.40625-14.371094-23.40625-28.175781v-44.65625h-49.640625v77.546874c0 13.800782 9.855469 25.546876 23.40625 28.175782 29.511719 5.722656 58.417969 15.546875 85.847656 29.472656 20.25 10.277344 33.007813 31.058594 33.007813 53.765625v86.363281h49.640625v-119.25c0-22.707031-12.757813-43.488281-33.007813-53.769531zm0 0" fill="#efc79c"/><path d="m337.019531 318.171875c-25.441406-12.914063-52.152343-22.292969-79.433593-28.15625 0 .082031.011718.164063.011718.25 0 20.109375-30.816406 36.410156-68.832031 36.410156-38.011719 0-68.828125-16.300781-68.828125-36.410156 0-.082031.011719-.167969.011719-.25-27.285157 5.859375-53.992188 15.242187-79.4375 28.15625-20.246094 10.28125-33.003907 31.0625-33.003907 53.769531v107.542969c0 6.464844 5.242188 11.707031 11.707032 11.707031h350.808594v-119.25c.003906-22.707031-12.753907-43.488281-33.003907-53.769531zm0 0" fill="#fc6a58"/><path d="m370.027344 491.191406v-119.25c0-22.707031-12.757813-43.488281-33.007813-53.769531-25.441406-12.914063-52.152343-22.292969-79.433593-28.15625 0 .082031.011718.164063.011718.25 0 15.453125-18.210937 28.648437-43.894531 33.933594 25.28125 5.910156 50.027344 14.855469 73.675781 26.863281 20.25 10.277344 33.007813 31.058594 33.007813 53.769531v86.359375zm0 0" fill="#e35052"/><path d="m210.773438 8h-44.015626c-47.894531 0-86.722656 38.828125-86.722656 86.726562v53.390626h217.460938v-53.390626c.003906-47.898437-38.824219-86.726562-86.722656-86.726562zm0 0" fill="#fdbd37"/><path d="m210.773438 8h-44.015626c-.941406 0-1.875.039062-2.8125.070312 46.59375 1.488282 83.914063 39.703126 83.914063 86.65625v53.390626h49.640625v-53.390626c0-47.898437-38.828125-86.726562-86.726562-86.726562zm0 0" fill="#fa9a39"/><path d="m106.339844 117.542969h-14.179688c-12.03125 0-21.773437 9.757812-21.773437 21.789062v10.304688c0 12.03125 9.742187 21.789062 21.773437 21.789062h14.179688zm0 0" fill="#fed6a6"/><path d="m271.195312 117.542969h14.179688c12.03125 0 21.773438 9.757812 21.773438 21.789062v10.304688c0 12.03125-9.742188 21.789062-21.773438 21.789062h-14.179688zm0 0" fill="#fed6a6"/><path d="m109.195312 105.617188c-6.457031-1.117188-12.347656 3.890624-12.320312 10.445312l.261719 55.59375c0 68.292969 64.742187 89.925781 92.121093 90.160156 27.371094-.421875 91.496094-18.261718 91.496094-90.792968l-.234375-54.976563c-.023437-5.117187-4.289062-9.167969-9.402343-8.976563-20.082032.757813-37.882813-21.527343-45.074219-31.925781-1.707031-2.46875-5.253907-2.609375-7.21875-.34375-27.917969 32.195313-84.585938 35.148438-109.628907 30.816407zm0 0" fill="#ffe3c2"/><path d="m280.519531 116.046875c-.023437-5.117187-4.289062-9.167969-9.402343-8.976563-16.4375.621094-31.34375-14.195312-40.160157-25.296874l.222657 89.25c0 54.671874-36.429688 78.265624-66.09375 86.753906 9.238281 2.746094 17.734374 3.984375 24.171874 4.039062 27.371094-.421875 91.496094-18.261718 91.496094-90.789062zm0 0" fill="#f7d6b5"/><path d="m503.34375 394.96875c-1.3125-5.890625-7.148438-9.601562-13.039062-8.285156-5.890626 1.316406-9.597657 7.152344-8.285157 13.042968.019531.09375 2 9.71875-1.234375 21.992188-4.464844 16.925781-16.429687 30.179688-35.5625 39.402344-17.75 8.554687-30.234375 19.324218-38.996094 29.953125h31.476563c4.882813-3.664063 10.503906-7.136719 17.003906-10.269531 31.335938-15.101563 42.964844-37.4375 47.203125-53.515626 4.554688-17.257812 1.769532-30.832031 1.433594-32.320312zm0 0" fill="#7c513c"/><path d="m349.609375 354.804688h-.039063c-60.601562 0-108.0625 52.144531-102.375 112.480468l2.253907 23.90625h192.742187c4.296875 0 7.882813-3.265625 8.289063-7.539062l1.542969-16.363282c5.6875-60.339843-41.777344-112.484374-102.382813-112.484374zm0 0" fill="#d08f61"/><path d="m349.640625 354.804688h-.070313c-6.984374 0-13.792968.699218-20.371093 2.019531 45.96875 9.632812 79.167969 52.582031 74.570312 101.359375l-3.113281 33.007812h41.535156c4.296875 0 7.882813-3.265625 8.289063-7.539062l1.542969-16.363282c5.683593-60.339843-41.777344-112.484374-102.382813-112.484374zm0 0" fill="#c67f4f"/><path d="m417.535156 229.050781-.09375-.125c-2.179687-2.820312-4.664062-5.449219-7.402344-7.851562-10.121093-8.886719-24.71875-13.125-39.269531-11.824219l-16.503906 4.324219c-.894531.082031-2.074219.121093-3.253906.121093-1.179688 0-2.359375-.039062-3.253907-.121093l-16.503906-4.324219c-14.550781-1.300781-29.148437 2.9375-39.269531 11.824219-2.738281 2.402343-5.21875 5.03125-7.402344 7.851562l-.09375.125c-10.113281 13.078125-15.121093 28.484375-14.328125 44.070313 0 0 3.371094 51.941406 4.164063 55.445312 3.742187 16.578125 12.628906 31.535156 25.125 43.050782 2.550781 2.351562 4.855469 4.722656 5.941406 6.484374 11.171875 18.128907 23.445313 29.503907 40.097656 29.503907h11.046875c16.652344 0 28.925782-11.375 40.09375-29.503907 1.085938-1.757812 3.394532-4.132812 5.941406-6.484374 12.5-11.515626 21.382813-26.472657 25.128907-43.050782.789062-3.503906 4.164062-55.445312 4.164062-55.445312.792969-15.585938-4.214843-30.992188-14.328125-44.070313zm0 0" fill="#d08f61"/><path d="m417.535156 229.050781-.09375-.125c-2.179687-2.820312-4.664062-5.449219-7.402344-7.851562-10.121093-8.886719-24.71875-13.125-39.269531-11.824219l-10.449219 2.738281c14.921876 13.777344 22.871094 45.992188 22.097657 61.132813 0 0-3.371094 51.941406-4.164063 55.445312-3.742187 16.578125-12.625 31.535156-25.125 43.050782-2.550781 2.351562-4.855468 4.722656-5.941406 6.484374-6.398438 10.382813-13.160156 18.546876-20.898438 23.628907 5.769532 3.792969 12.085938 5.875 19.199219 5.875h11.046875c16.652344 0 28.925782-11.375 40.097656-29.503907 1.082032-1.757812 3.390626-4.132812 5.9375-6.484374 12.5-11.515626 21.386719-26.472657 25.128907-43.050782.789062-3.503906 4.164062-55.445312 4.164062-55.445312.792969-15.585938-4.214843-30.992188-14.328125-44.070313zm0 0" fill="#c67f4f"/><g fill="#8b5f46"><path d="m237.1875 261.3125c-.363281 10.257812 4.847656 20.304688 14.511719 27.992188l.507812.402343c6.519531 5.191407 10.863281 11.597657 12.507813 18.453125l.886718 3.703125c.5 2.089844 4.023438 2.96875 6.113282 1.523438 10.65625-7.367188 16.828125-17.515625 17.207031-28.289063l.132813-3.890625c.105468-2.941406-.226563-5.890625-.984376-8.792969l-4.207031-17.867187c-1.53125-4.164063-1.042969-10.878906 1.324219-17.878906 4.339844-12.84375 15.675781-22.71875 29.855469-26.578125 0-.003906-81.582031-14.421875-77.855469 51.222656zm0 0"/><path d="m464.882812 261.3125c.359376 10.257812-4.847656 20.304688-14.511718 27.992188l-.507813.402343c-6.523437 5.191407-10.867187 11.597657-12.507812 18.453125l-.886719 3.703125c-.5 2.089844-4.027344 2.96875-6.113281 1.523438-10.660157-7.367188-16.832031-17.515625-17.207031-28.289063l-.136719-3.890625c-.105469-2.941406.226562-5.890625.984375-8.792969l4.207031-17.867187c1.53125-4.164063 1.042969-10.878906-1.324219-17.878906-4.339844-12.84375-15.675781-22.71875-29.855468-26.578125 0-.003906 81.582031-14.421875 77.859374 51.222656zm0 0"/><path d="m396.632812 378.101562-13.484374-38.371093c-3.914063-11.144531-15.558594-17.589844-27.082032-14.988281-3.328125.75-6.78125.761718-10.117187.027343l-.574219-.125c-11.582031-2.542969-23.222656 4.03125-27.03125 15.257813l-12.953125 38.199218c11.171875 18.128907 23.445313 29.503907 40.097656 29.503907h11.046875c16.652344 0 28.925782-11.378907 40.097656-29.503907zm0 0"/></g><path d="m368.003906 355.722656c0 5.527344-7.609375 14.6875-16.992187 14.6875-9.382813 0-16.992188-9.160156-16.992188-14.6875s7.609375-10.011718 16.992188-10.011718c9.382812 0 16.992187 4.484374 16.992187 10.011718zm0 0" fill="#7c513c"/><path d="m190.160156 178.925781h6.75c4.140625 0 7.496094-3.355469 7.496094-7.5s-3.355469-7.5-7.496094-7.5h-2.472656v-16.199219c0-4.144531-3.355469-7.5-7.496094-7.5-4.144531 0-7.5 3.355469-7.5 7.5v20.476563c0 5.914063 4.808594 10.722656 10.71875 10.722656zm0 0"/><path d="m225.722656 205c2.214844-3.5 1.175782-8.132812-2.324218-10.347656s-8.132813-1.171875-10.351563 2.328125c-4.375 6.917969-13.910156 11.386719-24.285156 11.386719s-19.910157-4.46875-24.285157-11.386719c-2.214843-3.5-6.847656-4.542969-10.351562-2.328125-3.5 2.214844-4.539062 6.847656-2.324219 10.347656 7.167969 11.328125 21.332031 18.367188 36.960938 18.367188 15.628906 0 29.792969-7.039063 36.960937-18.367188zm0 0"/><path d="m235.640625 148.871094c4.144531 0 7.5-3.355469 7.5-7.5v-5.976563c0-4.144531-3.355469-7.5-7.5-7.5-4.140625 0-7.5 3.355469-7.5 7.5v5.976563c0 4.144531 3.359375 7.5 7.5 7.5zm0 0"/><path d="m141.875 127.894531c-4.140625 0-7.5 3.355469-7.5 7.5v5.976563c0 4.144531 3.359375 7.5 7.5 7.5 4.144531 0 7.5-3.355469 7.5-7.5v-5.976563c0-4.144531-3.355469-7.5-7.5-7.5zm0 0"/><path d="m381.027344 303.800781c4.144531 0 7.5-3.355469 7.5-7.5 0-.484375.394531-.875.878906-.875s.878906.390625.878906.875c0 4.144531 3.355469 7.5 7.5 7.5 4.140625 0 7.5-3.355469 7.5-7.5 0-8.753906-7.125-15.875-15.878906-15.875s-15.878906 7.121094-15.878906 15.875c0 4.144531 3.359375 7.5 7.5 7.5zm0 0"/><path d="m311.769531 296.300781c0-.484375.390625-.875.875-.875s.878907.390625.878907.875c0 4.144531 3.355468 7.5 7.5 7.5 4.144531 0 7.5-3.355469 7.5-7.5 0-8.753906-7.121094-15.875-15.878907-15.875-8.753906 0-15.875 7.121094-15.875 15.875 0 4.144531 3.355469 7.5 7.5 7.5 4.140625 0 7.5-3.355469 7.5-7.5zm0 0"/><path d="m510.65625 393.335938c-1.070312-4.804688-3.945312-8.902344-8.101562-11.542969s-9.085938-3.5-13.894532-2.429688c-9.890625 2.210938-16.152344 12.035157-13.992187 21.894531.105469.570313 1.484375 8.578126-1.144531 18.550782-2.355469 8.933594-7.21875 16.75-14.5 23.347656-3.898438-29.550781-19.640626-56.339844-43.589844-74.121094 9.640625-11.273437 16.351562-24.535156 19.574218-38.816406.144532-.652344.351563-1.5625.96875-9.035156.417969-.109375.832032-.242188 1.238282-.394532 3.371094-1.292968 5.753906-3.90625 6.539062-7.175781l.886719-3.703125c1.253906-5.226562 4.671875-10.183594 9.878906-14.328125l.511719-.40625c11.351562-9.03125 17.65625-21.320312 17.347656-33.765625 1.011719-19.050781-4.429687-33.996094-16.175781-44.429687-22.691406-20.15625-61.269531-15.664063-69.128906-14.496094-5.601563-.976563-11.320313-1.214844-17.023438-.699219-3.242187.292969-13.628906 3.472656-15.558593 3.976563-1.09375.289062-4.625.628906-7.171876-.117188-3.5-1.03125-11.585937-3.390625-15.40625-3.863281-5.667968-.699219-11.386718-.273438-16.964843.699219-4.152344-.617188-16.679688-2.128907-30.925781-.542969 2.132812-7.257812 3.464843-14.984375 3.980468-23.128906 14.910156-1.335938 26.636719-13.910156 26.636719-29.167969v-10.308594c0-8.605469-3.726563-16.351562-9.648437-21.714843v-22.890626c0-52.039062-42.1875-94.226562-94.226563-94.226562h-44.015625c-52.039062 0-94.222656 42.1875-94.222656 94.226562v22.890626c-5.925782 5.363281-9.652344 13.113281-9.652344 21.714843v10.304688c0 15.378906 11.90625 28.023437 26.980469 29.199219 2.328125 36.105468 22.027343 57.640624 38.710937 69.53125 4.464844 3.183593 9.070313 5.941406 13.695313 8.320312v3.835938c0 10.113281-7.292969 18.867187-17.335938 20.8125-30.527343 5.921874-60.074219 16.066406-87.816406 30.148437-22.890625 11.621094-37.109375 34.785156-37.109375 60.457031v33.820313c0 4.105469 3.164062 7.6875 7.269531 7.808593 4.246094.128907 7.730469-3.277343 7.730469-7.496093v-34.132813c0-19.992187 11.074219-38.03125 28.898438-47.082031 22.273437-11.304687 45.765624-19.953125 70.003906-25.78125 6.90625 20.257813 37.316406 35.097656 74.855468 35.097656 30.335938 0 56.269532-9.640625 68.613282-24.28125.019531.007813.019531.007813.039062.011719 0 0 .886719 3.707031.890625 3.707031.902344 3.78125 4.046875 6.574219 7.730469 7.558594.617188 7.492187.824219 8.402344.972656 9.050781 3.097656 13.738282 9.445313 26.570313 18.523438 37.574219-12.976563 9.28125-23.9375 21.347656-31.910156 35.339844-2.039063 3.582031-1.027344 8.28125 2.511718 10.398437 3.574219 2.144532 8.335938.886719 10.386719-2.734375 7.640625-13.503906 18.492187-24.945312 31.394531-33.292969-.128906 1.570313.246094 3.160157 1.089844 4.53125 8.746094 14.195313 23.082031 33.066407 46.480469 33.066407h11.046875c23.398437 0 37.734375-18.871094 46.480468-33.066407.519532-.84375.863282-1.773437 1.019532-2.730468 25.335937 17.59375 40.765625 46.558594 40.941406 77.734375-.183594 7.894531-1.007812 15.734375-1.746094 23.589843-.066406.671876.066406 3.0625-1.039062 3.0625h-22.203125v-16.96875c0-4.105468-3.167969-7.6875-7.273438-7.808593-4.246093-.128907-7.726562 3.277343-7.726562 7.496093v17.28125h-110.761719v-16.96875c0-4.105468-3.164062-7.6875-7.269531-7.808593-4.246094-.128907-7.726563 3.277343-7.726563 7.496093v17.28125h-22.957031l-1.613281-17.113281c-.792969-8.421875-.484375-16.863281.921875-25.09375.699219-4.082031-2.046875-7.957031-6.128907-8.652343-4.089843-.703126-7.957031 2.046874-8.65625 6.128906-1.628906 9.527344-1.984374 19.292968-1.066406 29.023437l1.476563 15.703125h-168.972657v-80.132812c0-4.109375-3.164062-7.6875-7.269531-7.8125-4.246093-.125-7.730469 3.277344-7.730469 7.496094v80.449218h-38.019531c-2.324219 0-4.207031-1.882812-4.207031-4.207031v-38.121094c0-4.105469-3.164062-7.6875-7.269531-7.808593-4.25-.128907-7.730469 3.277343-7.730469 7.496093v38.433594c0 10.609375 8.601562 19.207031 19.207031 19.207031h422.976563c6.960937 0 12.882812-4.425781 15.011718-10.765625 34.480469-16.34375 47.285157-40.988281 51.960938-58.722656 4.902344-18.589844 2.109375-33.140625 1.5-35.867187zm-64.386719-165.117188c8.308594 7.394531 11.945313 18.082031 11.117188 32.667969-.015625.230469-.015625.460937-.007813.691406.273438 7.878906-3.875 15.644531-11.679687 21.855469l-.515625.40625c-7.15625 5.695312-12.132813 12.675781-14.507813 20.308594-6.269531-5.542969-9.796875-12.269532-10.042969-19.3125l-.136718-3.894532c-.078125-2.207031.175781-4.4375.75-6.632812.011718-.0625.027344-.121094.042968-.179688l4.113282-17.480468c1.945312-5.800782 1.433594-13.914063-1.425782-22.382813-2.261718-6.683594-6.085937-12.710937-11.105468-17.753906 11.421875.816406 24.433594 3.726562 33.398437 11.707031zm-146.628906-78.582031c0 6.90625-4.914063 12.679687-11.425781 14.003906l-.164063-38.34375c6.59375 1.261719 11.589844 7.074219 11.589844 14.035156zm-212.113281-54.910157c0-43.6875 35.539062-79.226562 79.226562-79.226562h44.011719c43.6875 0 79.226563 35.539062 79.226563 79.226562v15.683594c-1.015626-.164062-2.050782-.273437-3.097657-.328125-.859375-2.203125-2.199219-4.214843-3.964843-5.910156-3.269532-3.136719-7.566407-4.75-12.101563-4.597656-4.277344.191406-19.769531-1.429688-38.625-28.695313-2.128906-3.082031-5.488281-4.964844-9.222656-5.167968-3.773438-.21875-7.347657 1.316406-9.828125 4.175781-14.0625 16.21875-35.886719 23.453125-51.71875 26.667969-20.5625 4.175781-39.808594 3.601562-50.96875 1.671874-5.257813-.910156-10.617188.550782-14.695313 4-2.511719 2.121094-4.359375 4.84375-5.40625 7.871094-.960937.058594-1.90625.164063-2.835937.3125zm-9.652344 54.910157v-10.304688c0-6.941406 4.972656-12.742187 11.535156-14.023437l.179688 38.386718c-6.652344-1.210937-11.714844-7.054687-11.714844-14.058593zm26.753906 21.984375s-.257812-54.136719-.257812-54.164063c0-4.523437 2.351562-4.652343 3.539062-4.449219 12.503906 2.160157 33.910156 2.835938 56.507813-1.753906 17.246093-3.5 40.847656-11.335937 57.589843-28.824218 20.90625 28.699218 39.808594 32.480468 49.382813 32.136718.855469-.046875 1.617187.65625 1.621094 1.515625 0 0 .230469 55.5.234375 55.578125-.070313 12.46875-2.203125 23.816406-6.34375 33.796875-7.566406 2.398438-14.894532 6.054688-21.050782 11.523438-7.738281 6.875-12.742187 15.710937-14.964843 26.386719-15.121094 7.777343-31.199219 10.773437-41.660157 10.949218-13.378906-.136718-34.601562-5.800781-51.949218-18.164062-21.664063-15.4375-32.648438-37.136719-32.648438-64.53125zm84.128906 147.554687c-31.257812 0-54.320312-11.394531-59.984374-23.320312 15.722656-3.5 27.257812-16.914063 28.394531-32.753907 12.289062 4.332032 23.765625 6.144532 32.015625 6.214844h.066406.113281c4.359375-.066406 16.378907-.722656 31.050781-5.433594 1.417969 15.078126 12.261719 27.824219 27.085938 31.671876l.027344.019531c.351562.28125.691406.5625 1.027344.847656-6.882813 14.152344-35.148438 22.753906-59.796876 22.753906zm67.601563-35.738281c-7.8125-6.21875-11.960937-13.980469-11.6875-21.863281.011719-.226563-.011719-8.726563.484375-12.933594 1.328125-8.535156 4.832031-15.292969 10.628906-20.421875 7.832032-6.933594 18.691406-9.34375 19.078125-9.480469 4.785157-1.21875 9.679688-1.894531 14.316407-2.226562-5.019532 5.039062-8.84375 11.070312-11.105469 17.753906-2.859375 8.46875-3.371094 16.582031-1.425781 22.382813 0 0 4.113281 17.480468 4.113281 17.484374 1.242187 5.359376 1.230469 11.425782-.367188 16.71875-.753906 2.484376-1.949219 4.828126-3.398437 6.976563-.492188.730469-5.679688 6.148437-5.621094 6.316406-4.882812-13.800781-15.015625-20.707031-15.015625-20.707031zm25.296875 43.585938c-.074219-.492188-.332031-2.570313-.996094-11.085938 9.683594-8.34375 15.351563-19.234375 15.746094-30.574219l.136719-3.894531c.128906-3.628906-.273438-7.28125-1.199219-10.859375 0 0-4.34375-18.367187-4.449219-18.652344-.742187-2.023437-.625-6.917969 1.390625-12.886719 3.472656-10.273437 12.597656-18.355468 24.441406-21.667968 4.339844-.832032 8.792969-1.078125 13.246094-.734375l15.878906 4.164062c5.515626 1.265625 9.902344.105469 10.308594 0l15.875-4.164062c4.515625-.347657 9.03125-.089844 13.433594.773437 11.773438 3.335938 20.839844 11.398438 24.300781 21.628906 2.015625 5.964844 2.132813 10.863282 1.386719 12.886719-.101562.285157-4.445312 18.652344-4.445312 18.652344-.925782 3.578125-1.328126 7.230469-1.199219 10.859375l.132812 3.890625c.398438 11.328125 6.050781 22.203125 15.710938 30.542969-.667969 8.542968-.925781 10.632812-1.003907 11.125-2.84375 12.507812-8.917968 24.09375-17.6875 33.820312-1.660156-.910156-3.347656-1.777344-5.066406-2.609375l-7.378906-20.996093c-5.179688-14.738282-20.578125-23.25-35.808594-19.816407-2.441406.554688-5.003906.5-7.433594-.105469-15.332031-3.367187-30.699218 5.308594-35.742187 20.175782l-6.550781 19.316406c-2.113282.945312-4.195313 1.953125-6.242188 3.027344-8.277344-9.515625-14.039062-20.753906-16.785156-32.816406zm80.683594 47.859374c7.726562-4.25 13.15625-12.234374 13.15625-19.160156 0-9.980468-10.53125-17.507812-24.492188-17.507812-13.960937 0-24.488281 7.527344-24.488281 17.507812 0 7.199219 5.867187 15.542969 14.078125 19.644532-13.722656 6.609374-22.359375 3.328124-26.527344.492187l11.375-33.546875c2.582032-7.621094 10.457032-12.074219 18.320313-10.339844 4.605469 1.015625 9.332031 1.125 13.949219.085938 7.808593-1.761719 15.703124 2.601562 18.355468 10.15625l11.765625 33.480468c-3.796875 2.082032-11.726562 4.28125-25.492187-.8125zm-11.335938-11.96875c-4.871094 0-8.84375-4.917968-9.425781-6.894531.875-.984375 4.226563-2.808593 9.425781-2.808593 5.171875 0 8.511719 1.800781 9.414063 2.789062-.648438 2.09375-4.585938 6.914062-9.414063 6.914062zm-5.523437 37.191407c-6.039063 0-11.621094-1.941407-17.054688-6.050781 6.777344-.460938 14.496094-2.632813 23-7.449219 9.226563 4.144531 17.066407 5.925781 23.628907 6.28125-5.898438 4.910156-11.945313 7.21875-18.527344 7.21875zm149.171875 25.273437c-3.464844 13.140625-12.453125 30.9375-35.347656 44.472656 0 0 .523437-6.261718.601562-8.457031 14.617188-9.703125 24.070312-22.390625 28.125-37.765625 3.71875-14.117187 1.40625-25.046875 1.300781-25.535156-.410156-1.84375.75-3.699219 2.597657-4.089844 2.398437-.503906 3.820312 1.390625 4.089843 2.597656.113281.523438 2.804688 12.960938-1.367187 28.777344zm0 0"/></svg>