<?xml version="1.0" standalone="no"?>
<!DOCTYPE svg PUBLIC "-//W3C//DTD SVG 20010904//EN"
 "http://www.w3.org/TR/2001/REC-SVG-20010904/DTD/svg10.dtd">
<svg version="1.0" xmlns="http://www.w3.org/2000/svg"
 width="232.000000pt" height="49.000000pt" viewBox="0 0 232.000000 49.000000"
 preserveAspectRatio="xMidYMid meet">
<metadata>
Created by potrace 1.16, written by Peter Selinger 2001-2019
</metadata>
<g transform="translate(0.000000,49.000000) scale(0.100000,-0.100000)"
fill="#000000" stroke="none">
<path d="M30 251 l0 -191 38 0 c50 0 60 9 64 55 l3 40 70 3 c38 2 75 8 82 14
18 15 18 231 1 246 -7 5 -68 13 -135 17 l-123 8 0 -192z"/>
<path d="M1466 424 c-3 -8 -6 -89 -6 -179 0 -152 1 -165 19 -175 11 -5 67 -10
125 -10 126 0 126 0 126 119 l0 81 -65 0 -65 0 0 -34 c0 -21 6 -36 15 -40 8
-3 15 -15 15 -26 0 -15 -7 -20 -29 -20 -26 0 -29 3 -35 46 -3 26 -6 75 -6 110
l0 64 34 0 c28 0 35 -4 40 -26 6 -23 11 -25 49 -22 l42 3 0 60 0 60 -126 3
c-109 2 -128 0 -133 -14z"/>
<path d="M332 320 c-24 -39 -15 -57 30 -63 23 -3 48 -1 55 4 18 15 68 7 68
-11 0 -12 -16 -16 -72 -18 -40 -2 -76 -8 -81 -15 -6 -7 -12 -38 -13 -71 -4
-82 4 -86 153 -85 l118 0 0 129 c0 156 5 150 -142 150 -92 0 -105 -2 -116 -20z"/>
<path d="M623 328 c-6 -7 -13 -39 -17 -70 -7 -65 4 -78 67 -78 55 0 97 -11 97
-26 0 -10 -13 -14 -40 -14 -22 0 -40 5 -40 10 0 6 -18 10 -40 10 -37 0 -39 -2
-46 -35 -11 -58 3 -65 123 -65 132 0 143 6 143 70 0 27 -5 61 -12 75 -9 21
-18 25 -53 25 -60 0 -106 11 -102 24 5 17 62 19 75 3 8 -10 23 -12 49 -8 42 7
54 32 33 70 -10 19 -20 21 -119 21 -75 0 -112 -4 -118 -12z"/>
<path d="M895 320 c-15 -17 -16 -32 -10 -132 4 -65 12 -116 19 -120 6 -4 59
-8 118 -8 96 0 108 2 118 19 21 41 13 58 -32 64 -24 3 -44 2 -46 -4 -6 -16
-72 -11 -72 6 0 12 14 15 69 15 43 0 72 5 79 13 5 6 13 40 17 75 10 86 2 91
-136 92 -93 0 -108 -2 -124 -20z"/>
<path d="M1192 320 c-24 -39 -15 -57 30 -63 23 -3 48 -1 55 4 18 15 68 7 68
-11 0 -12 -16 -16 -72 -18 -40 -2 -76 -8 -81 -15 -6 -7 -12 -37 -14 -68 -5
-86 1 -89 148 -88 l124 0 0 129 c0 156 5 150 -142 150 -92 0 -105 -2 -116 -20z"/>
<path d="M1756 324 c-3 -9 -6 -69 -6 -134 0 -98 3 -119 16 -124 9 -3 64 -6
123 -6 106 0 108 0 119 25 7 14 12 70 12 124 0 130 -1 131 -147 131 -92 0
-112 -3 -117 -16z"/>
<path d="M2058 329 c-14 -8 -18 -24 -18 -73 0 -72 4 -76 73 -76 57 0 87 -9 87
-26 0 -10 -13 -14 -40 -14 -22 0 -40 5 -40 10 0 6 -17 10 -39 10 -37 0 -39 -2
-45 -36 -11 -57 1 -64 121 -64 132 0 143 6 143 70 0 27 -5 61 -12 75 -10 22
-17 25 -62 25 -63 0 -98 9 -93 24 5 16 46 20 72 6 12 -6 37 -10 56 -8 32 3 34
5 32 37 -1 18 -7 38 -15 42 -18 12 -199 11 -220 -2z"/>
</g>
</svg>
