<?xml version="1.0" encoding="iso-8859-1"?>
<!-- Generator: Adobe Illustrator 19.0.0, SVG Export Plug-In . SVG Version: 6.00 Build 0)  -->
<svg version="1.1" id="Capa_1" xmlns="http://www.w3.org/2000/svg" xmlns:xlink="http://www.w3.org/1999/xlink" x="0px" y="0px"
	 viewBox="0 0 512 512" style="enable-background:new 0 0 512 512;" xml:space="preserve">
<g>
	<path style="fill:#B78046;" d="M427.129,148.135c-0.012-0.175-0.024-0.35-0.037-0.525c-2.145-28.298-25.401-50.774-53.754-51.992
		c-32.283-1.386-58.89,24.375-58.89,56.351c0,0.039,0,0.079,0,0.118c0.014,6.721-3.359,12.943-9.023,16.561
		c-16.912,10.8-27.841,30.138-26.691,51.945c1.557,29.52,25.547,53.336,55.077,54.698c7.759,0.358,15.201-0.815,22.05-3.241
		c9.685-3.43,20.302-3.43,29.987,0c6.847,2.425,14.286,3.598,22.045,3.24c29.529-1.36,53.521-25.175,55.08-54.694
		c1.082-20.495-8.504-38.808-23.7-49.905C432.041,165.413,427.725,157.069,427.129,148.135z"/>
	<circle style="fill:#B78046;" cx="264.709" cy="114.004" r="27.823"/>
	<circle style="fill:#B78046;" cx="321.151" cy="41.191" r="33.761"/>
	<circle style="fill:#B78046;" cx="476.987" cy="114.004" r="27.823"/>
	<circle style="fill:#B78046;" cx="420.555" cy="41.191" r="33.761"/>
</g>
<g>
	<path style="fill:#A86D38;" d="M298.734,220.594c-1.15-21.808,9.779-41.144,26.691-51.945c5.664-3.617,9.037-9.84,9.023-16.561
		c0-0.039,0-0.079,0-0.118c0-27.742,20.032-50.793,46.418-55.509c-2.46-0.444-4.972-0.732-7.527-0.842
		c-32.283-1.386-58.89,24.375-58.89,56.351c0,0.039,0,0.079,0,0.118c0.014,6.721-3.359,12.943-9.023,16.561
		c-16.912,10.8-27.841,30.138-26.691,51.945c1.557,29.52,25.547,53.336,55.076,54.698c4.363,0.201,8.62-0.098,12.733-0.815
		C320.435,269.9,300.16,247.649,298.734,220.594z"/>
	<path style="fill:#A86D38;" d="M405.847,272.053c-8.045-2.849-16.732-3.324-24.995-1.44c1.685,0.384,3.354,0.859,4.994,1.44
		c6.847,2.425,14.286,3.598,22.045,3.24c2.467-0.114,4.891-0.398,7.271-0.815C411.961,273.92,408.845,273.114,405.847,272.053z"/>
	<path style="fill:#A86D38;" d="M256.892,114.005c0-11.84,7.399-21.946,17.824-25.964c-3.104-1.197-6.474-1.859-10-1.859
		c-15.367,0-27.824,12.457-27.824,27.823c0,15.367,12.457,27.824,27.824,27.824c3.526,0,6.896-0.663,10-1.859
		C264.291,135.952,256.892,125.845,256.892,114.005z"/>
	<path style="fill:#A86D38;" d="M307.387,41.194c0-15.165,9.998-27.992,23.761-32.255c-3.16-0.979-6.518-1.507-10-1.507
		c-18.646,0-33.761,15.116-33.761,33.761s15.116,33.761,33.761,33.761c3.482,0,6.84-0.528,10-1.507
		C317.384,69.186,307.387,56.359,307.387,41.194z"/>
	<path style="fill:#A86D38;" d="M469.167,114.005c0-11.84,7.399-21.946,17.824-25.964c-3.104-1.197-6.474-1.859-10-1.859
		c-15.367,0-27.824,12.457-27.824,27.823c0,15.367,12.457,27.824,27.824,27.824c3.526,0,6.896-0.663,10-1.859
		C476.566,135.952,469.167,125.845,469.167,114.005z"/>
	<path style="fill:#A86D38;" d="M406.797,41.194c0-15.165,9.998-27.992,23.761-32.255c-3.16-0.979-6.518-1.507-10-1.507
		c-18.646,0-33.761,15.116-33.761,33.761s15.116,33.761,33.761,33.761c3.482,0,6.84-0.528,10-1.507
		C416.794,69.186,406.797,56.359,406.797,41.194z"/>
</g>
<g>
	<path style="fill:#B78046;" d="M198.065,377.633c-0.012-0.175-0.024-0.35-0.037-0.525c-2.145-28.298-25.401-50.774-53.754-51.992
		c-32.283-1.386-58.89,24.375-58.89,56.351c0,0.039,0,0.079,0,0.118c0.014,6.721-3.359,12.943-9.023,16.561
		c-16.912,10.8-27.841,30.138-26.691,51.945c1.557,29.52,25.547,53.336,55.077,54.698c7.759,0.358,15.201-0.815,22.05-3.241
		c9.685-3.43,20.302-3.43,29.987,0c6.847,2.425,14.286,3.598,22.045,3.24c29.529-1.36,53.521-25.175,55.08-54.694
		c1.082-20.495-8.504-38.808-23.7-49.905C202.977,394.911,198.661,386.567,198.065,377.633z"/>
	<circle style="fill:#B78046;" cx="35.651" cy="343.502" r="27.823"/>
	<circle style="fill:#B78046;" cx="92.083" cy="270.69" r="33.761"/>
	<circle style="fill:#B78046;" cx="247.928" cy="343.502" r="27.823"/>
	<circle style="fill:#B78046;" cx="191.496" cy="270.69" r="33.761"/>
</g>
<g>
	<path style="fill:#A86D38;" d="M69.67,450.093c-1.15-21.808,9.779-41.144,26.691-51.945c5.664-3.617,9.037-9.84,9.023-16.561
		c0-0.039,0-0.079,0-0.118c0-27.742,20.032-50.793,46.418-55.509c-2.46-0.444-4.972-0.732-7.527-0.842
		c-32.283-1.386-58.89,24.375-58.89,56.351c0,0.039,0,0.079,0,0.118c0.014,6.721-3.359,12.943-9.023,16.561
		c-16.912,10.8-27.841,30.138-26.691,51.945c1.557,29.52,25.547,53.336,55.076,54.698c4.363,0.201,8.62-0.098,12.733-0.815
		C91.371,499.398,71.097,477.147,69.67,450.093z"/>
	<path style="fill:#A86D38;" d="M176.784,501.551c-8.045-2.849-16.732-3.324-24.995-1.44c1.685,0.384,3.354,0.859,4.994,1.44
		c6.847,2.425,14.286,3.598,22.045,3.24c2.467-0.114,4.891-0.398,7.271-0.815C182.898,503.418,179.781,502.612,176.784,501.551z"/>
	<path style="fill:#A86D38;" d="M27.828,343.504c0-11.84,7.399-21.946,17.824-25.964c-3.104-1.197-6.474-1.859-10-1.859
		c-15.367,0-27.824,12.457-27.824,27.823c0,15.367,12.457,27.824,27.824,27.824c3.526,0,6.896-0.663,10-1.859
		C35.227,365.45,27.828,355.343,27.828,343.504z"/>
	<path style="fill:#A86D38;" d="M78.323,270.693c0-15.165,9.998-27.992,23.761-32.255c-3.16-0.979-6.518-1.507-10-1.507
		c-18.646,0-33.761,15.116-33.761,33.761s15.116,33.761,33.761,33.761c3.482,0,6.84-0.528,10-1.507
		C88.321,298.685,78.323,285.857,78.323,270.693z"/>
	<path style="fill:#A86D38;" d="M240.103,343.504c0-11.84,7.399-21.946,17.824-25.964c-3.105-1.197-6.474-1.859-10-1.859
		c-15.367,0-27.824,12.457-27.824,27.823c0,15.367,12.457,27.824,27.824,27.824c3.526,0,6.896-0.663,10-1.859
		C247.502,365.45,240.103,355.343,240.103,343.504z"/>
	<path style="fill:#A86D38;" d="M177.733,270.693c0-15.165,9.998-27.992,23.761-32.255c-3.16-0.979-6.518-1.507-10-1.507
		c-18.646,0-33.761,15.116-33.761,33.761s15.116,33.761,33.761,33.761c3.482,0,6.84-0.528,10-1.507
		C187.731,298.685,177.733,285.857,177.733,270.693z"/>
</g>
<path d="M70.654,343.137c0-19.478-15.847-35.324-35.323-35.324c-19.479,0-35.324,15.847-35.324,35.324
	c0,19.478,15.847,35.323,35.324,35.323S70.654,362.614,70.654,343.137z M35.331,363.46c-11.206,0-20.324-9.117-20.324-20.323
	c0-11.206,9.117-20.324,20.324-20.324s20.323,9.117,20.323,20.324C55.654,354.342,46.537,363.46,35.331,363.46z"/>
<path d="M91.763,311.587c22.752,0,41.262-18.51,41.262-41.261c0-22.752-18.511-41.261-41.262-41.261s-41.261,18.51-41.261,41.261
	C50.502,293.077,69.011,311.587,91.763,311.587z M91.763,244.065c14.481,0,26.262,11.78,26.262,26.261
	c0,14.481-11.78,26.261-26.262,26.261c-14.48,0-26.261-11.78-26.261-26.261C65.502,255.845,77.282,244.065,91.763,244.065z"/>
<path d="M247.606,307.813c-19.478,0-35.323,15.847-35.323,35.324c0,19.478,15.847,35.323,35.323,35.323s35.323-15.847,35.323-35.323
	C282.93,323.658,267.083,307.813,247.606,307.813z M247.606,363.46c-11.206,0-20.323-9.117-20.323-20.323
	c0-11.206,9.116-20.324,20.323-20.324c11.206,0,20.323,9.117,20.323,20.324C267.929,354.342,258.813,363.46,247.606,363.46z"/>
<path d="M191.173,311.587c22.752,0,41.262-18.51,41.262-41.261c0-22.752-18.511-41.261-41.262-41.261s-41.261,18.51-41.261,41.261
	C149.912,293.077,168.422,311.587,191.173,311.587z M191.173,244.065c14.48,0,26.262,11.78,26.262,26.261
	c0,14.481-11.78,26.261-26.262,26.261c-14.48,0-26.261-11.78-26.261-26.261C164.913,255.845,176.693,244.065,191.173,244.065z"/>
<path d="M264.395,149.396c19.478,0,35.323-15.847,35.323-35.323c0-19.478-15.847-35.324-35.323-35.324
	c-19.479,0-35.324,15.847-35.324,35.324C229.07,133.55,244.916,149.396,264.395,149.396z M264.395,93.749
	c11.206,0,20.323,9.117,20.323,20.324s-9.116,20.323-20.323,20.323s-20.324-9.117-20.324-20.323
	C244.07,102.867,253.189,93.749,264.395,93.749z"/>
<path d="M320.826,82.524c22.752,0,41.262-18.51,41.262-41.261S343.578,0,320.826,0s-41.261,18.51-41.261,41.261
	S298.074,82.524,320.826,82.524z M320.826,15.001c14.48,0,26.262,11.78,26.262,26.261s-11.78,26.261-26.262,26.261
	c-14.48,0-26.261-11.78-26.261-26.261S306.347,15.001,320.826,15.001z"/>
<path d="M476.67,78.749c-19.478,0-35.323,15.847-35.323,35.324s15.847,35.323,35.323,35.323c19.477,0,35.323-15.847,35.323-35.323
	C511.993,94.595,496.147,78.749,476.67,78.749z M476.67,134.396c-11.206,0-20.323-9.117-20.323-20.323
	c0-11.206,9.116-20.324,20.323-20.324s20.323,9.117,20.323,20.324C496.992,125.278,487.876,134.396,476.67,134.396z"/>
<path d="M420.238,82.524c22.752,0,41.262-18.51,41.262-41.261S442.989,0,420.238,0c-22.752,0-41.261,18.51-41.261,41.261
	S397.486,82.524,420.238,82.524z M420.238,15.001c14.481,0,26.262,11.78,26.262,26.261s-11.78,26.261-26.262,26.261
	c-14.479,0-26.261-11.78-26.261-26.261S405.757,15.001,420.238,15.001z"/>
<path d="M214.31,393.767c-5.31-3.878-8.619-10.074-9.081-17.003l-0.042-0.59c-2.44-32.203-28.627-57.532-60.911-58.918
	c-17.622-0.748-34.311,5.527-47.009,17.693C84.562,347.12,77.564,363.511,77.564,381.1v0.133c0.009,4.173-2.07,7.995-5.561,10.224
	c-34.946,22.317-40.922,71.676-10.89,101.497c17.249,17.13,42.161,23.162,65.031,16.227c3.964-1.202,6.202-5.39,5-9.354
	c-1.201-3.963-5.388-6.2-9.354-5c-31.805,9.645-63.284-13.861-64.952-45.496c-0.955-18.135,7.948-35.465,23.239-45.23
	c7.837-5.005,12.505-13.564,12.486-22.882v-0.118c0-13.461,5.354-26.005,15.079-35.32c9.718-9.31,22.486-14.118,35.989-13.538
	c24.697,1.061,44.73,20.435,46.596,45.059l0.033,0.464c0.758,11.365,6.299,21.614,15.203,28.116
	c13.823,10.095,21.538,26.339,20.634,43.453c-1.663,31.483-33.004,55.181-64.951,45.493c-3.963-1.203-8.152,1.037-9.354,5
	c-1.202,3.964,1.036,8.152,5,9.354c22.079,6.695,47.216,1.464,65.028-16.224C250.535,464.448,246.68,417.405,214.31,393.767z"/>
<path d="M309.142,175.037c7.837-5.005,12.505-13.564,12.486-22.882v-0.118c0-27.784,23.068-50.068,51.068-48.858
	c24.697,1.06,44.73,20.435,46.596,45.059l0.033,0.464c0.758,11.366,6.299,21.614,15.203,28.116
	c9.308,6.797,16.06,16.636,19.009,27.704c1.067,4.003,5.175,6.381,9.179,5.316c4.002-1.067,6.382-5.176,5.315-9.178
	c-3.83-14.372-12.587-27.142-24.657-35.955c-5.31-3.878-8.619-10.074-9.081-17.003l-0.042-0.59
	c-2.44-32.203-28.627-57.532-60.911-58.918c-36.494-1.562-66.711,27.456-66.711,63.845v0.133c0.009,4.173-2.07,7.995-5.561,10.224
	c-19.833,12.665-31.384,35.143-30.144,58.661c2.262,42.921,45.587,72.843,87.12,58.132c8.052-2.852,16.924-2.853,24.98,0
	c33.446,11.845,70.559-5.149,83.139-38.984c1.443-3.882-0.534-8.2-4.417-9.644c-3.88-1.442-8.198,0.534-9.644,4.416
	c-9.803,26.37-38.565,39.103-64.069,30.072c-11.283-3.996-23.712-3.997-34.995,0c-32.272,11.43-65.417-12.257-67.133-44.783
	C284.947,202.132,293.851,184.801,309.142,175.037z"/>
<g>
</g>
<g>
</g>
<g>
</g>
<g>
</g>
<g>
</g>
<g>
</g>
<g>
</g>
<g>
</g>
<g>
</g>
<g>
</g>
<g>
</g>
<g>
</g>
<g>
</g>
<g>
</g>
<g>
</g>
</svg>
