<svg id="Capa_1" enable-background="new 0 0 512 512" height="512" viewBox="0 0 512 512" width="512" xmlns="http://www.w3.org/2000/svg"><g><g><path d="m407.225 504.5h-302.451c-5.523 0-10-4.477-10-10v-366.296c0-.725.079-1.447.235-2.154l13.963-63.288h294.056l13.963 63.288c.156.708.235 1.43.235 2.154v366.296c-.001 5.523-4.478 10-10.001 10z" fill="#eff5f6"/><path d="m417.23 128.2v366.3c0 5.52-4.48 10-10 10h-38.2c5.52 0 10-4.48 10-10v-366.3c0-.72-.08-1.44-.24-2.15l-13.96-63.29h38.2l13.96 63.29c.16.71.24 1.43.24 2.15z" fill="#deecf0"/><path d="m104.774 504.5h29.564v-377.386l14.197-64.353h-39.564l-13.963 63.288c-.156.708-.235 1.43-.235 2.154v366.297c.001 5.523 4.479 10 10.001 10z" fill="#fcb44d"/><path d="m403.028 62.761h-294.056v-45.261c0-5.523 4.477-10 10-10h274.056c5.523 0 10 4.477 10 10z" fill="#cbe5e7"/><path d="m403.03 17.5v45.26h-38.2v-45.26c0-5.52-4.48-10-10-10h38.2c5.52 0 10 4.48 10 10z" fill="#a9d3d8"/><path d="m108.972 62.761h39.564v-55.261h-29.564c-5.523 0-10 4.477-10 10z" fill="#fca62f"/></g><path d="m355.463 87.898-15.731-9.159c-1.555-.905-3.477-.905-5.032 0l-15.731 9.159c-3.333 1.941-7.516-.464-7.516-4.321v-76.077h51.525v76.077c.001 3.857-4.181 6.261-7.515 4.321z" fill="#fb6a3b"/><g><path d="m368.678 469.105h-191.033c-2.761 0-5-2.239-5-5v-83.546c0-2.761 2.239-5 5-5h191.034c2.761 0 5 2.239 5 5v83.546c-.001 2.761-2.239 5-5.001 5z" fill="#a34f41"/><path d="m373.682 380.56v83.54c0 2.77-2.24 5-5 5h-27.12c2.77 0 5-2.23 5-5v-83.54c0-2.76-2.23-5-5-5h27.12c2.76 0 5 2.24 5 5z" fill="#873f30"/><path d="m373.682 402.48v61.62c0 2.77-2.24 5-5 5h-191.04c-2.76 0-5-2.23-5-5v-61.62z" fill="#fcc16d"/><path d="m373.682 402.48v61.62c0 2.77-2.24 5-5 5h-27.12c2.77 0 5-2.23 5-5v-61.62z" fill="#fca62f"/></g><g><path d="m341.717 167.296h-137.11c-5.523 0-10-4.477-10-10v-21.108c0-5.523 4.477-10 10-10h137.11c5.523 0 10 4.477 10 10v21.108c0 5.523-4.477 10-10 10z" fill="#fcc16d"/><path d="m351.72 136.19v21.11c0 5.52-4.48 10-10 10h-28.16c5.52 0 10-4.48 10-10v-21.11c0-5.53-4.48-10-10-10h28.16c5.52 0 10 4.47 10 10z" fill="#fca62f"/></g><g><path d="m258.411 295.315c2.979-4.114 4.592-9.281 4.173-14.839-.826-10.968-9.759-19.839-20.732-20.596-5.91-.408-11.374 1.48-15.588 4.862-4.862 3.901-10.945 5.781-17.166 5.398-6.736-.415-13.623 2.201-18.444 7.853-7.12 8.346-7.051 20.875.153 29.15 2.263 2.6 4.969 4.543 7.894 5.829 5.735 2.522 10.295 7.083 12.817 12.818 1.284 2.919 3.221 5.619 5.813 7.879 8.203 7.153 20.624 7.301 28.978.324 6.33-5.287 8.944-13.139 7.841-20.543-.953-6.396.469-12.898 4.261-18.135z" fill="#fcac8d"/><g fill="#fb946d"><path d="m246.313 333.995c-8.358 6.972-20.775 6.831-28.977-.325-2.595-2.256-4.533-4.957-5.819-7.884-.035-.078-.078-.163-.113-.24 5.077-.014 10.147-1.718 14.248-5.141 6.329-5.282 8.945-13.131 7.842-20.541-.955-6.399.467-12.898 4.264-18.137 2.977-4.108 4.589-9.284 4.172-14.835-.191-2.482-.792-4.865-1.739-7.057.544-.007 1.103.014 1.662.049 10.974.75 19.905 9.624 20.732 20.591.424 5.558-1.195 10.727-4.172 14.835-3.79 5.247-5.211 11.745-4.264 18.137 1.102 7.41-1.515 15.259-7.836 20.548z"/><g><circle cx="260.655" cy="223.661" r="15.983"/><circle cx="300.828" cy="263.833" r="15.983"/></g><g><circle cx="205.175" cy="222.572" r="15.983"/><circle cx="301.917" cy="319.313" r="15.983"/></g></g><g><path d="m424.314 124.434-13.786-62.357v-44.577c0-9.649-7.851-17.5-17.5-17.5h-164.125c-4.142 0-7.5 3.358-7.5 7.5s3.358 7.5 7.5 7.5h75.051v40.261h-147.918v-40.261h36.94c4.142 0 7.5-3.358 7.5-7.5s-3.358-7.5-7.5-7.5h-74.004c-9.649 0-17.5 7.851-17.5 17.5l-.048 44.661-13.74 62.276c-.272 1.235-.41 2.502-.41 3.767v237.708c0 4.142 3.358 7.5 7.5 7.5s7.5-3.358 7.5-7.5v-237.708c0-.182.02-.364.058-.539l12.665-57.404h24.203l-12.186 55.237c-.117.531-.176 1.072-.176 1.616v369.886h-22.063c-1.378 0-2.5-1.122-2.5-2.5v-92.662c0-4.142-3.358-7.5-7.5-7.5s-7.5 3.358-7.5 7.5v92.662c0 9.649 7.851 17.5 17.5 17.5h302.451c9.649 0 17.5-7.851 17.5-17.5v-366.296c-.001-1.267-.139-2.536-.412-3.77zm-28.786-106.934v37.761h-25.049v-40.261h22.549c1.378 0 2.5 1.122 2.5 2.5zm-76.574-2.5h36.525v64.228l-11.974-6.972c-1.939-1.129-4.114-1.693-6.289-1.693s-4.35.564-6.29 1.694l-11.973 6.971v-64.228zm-202.482 2.5c0-1.378 1.122-2.5 2.5-2.5h22.064v40.261h-24.564zm293.253 477c0 1.378-1.122 2.5-2.5 2.5h-265.387v-369.069l12.723-57.67h149.393v13.316c0 4.461 2.403 8.613 6.27 10.837 1.923 1.105 4.077 1.658 6.23 1.658 2.176 0 4.352-.564 6.29-1.693l14.473-8.427 14.473 8.427c3.855 2.245 8.653 2.258 12.52.034 3.868-2.223 6.27-6.375 6.27-10.836v-13.316h26.523l12.664 57.406c.039.176.059.356.059.537v366.296z"/><path d="m368.678 368.059h-191.033c-6.893 0-12.5 5.607-12.5 12.5v83.546c0 6.893 5.607 12.5 12.5 12.5h191.034c6.893 0 12.5-5.607 12.5-12.5v-83.546c-.001-6.892-5.608-12.5-12.501-12.5zm-2.5 26.919h-47.506v-11.919h47.506zm-62.506-11.919v11.919h-61.021v-11.919zm-76.021 0v11.919h-47.506v-11.919zm-47.506 26.919h47.506v51.627h-47.506zm62.506 51.627v-51.627h61.021v51.627zm76.021 0v-51.627h47.506v51.627z"/><path d="m267.86 420.032c-2.929-2.929-7.678-2.929-10.606 0-2.929 2.929-2.929 7.678 0 10.606l20.272 20.272c1.464 1.464 3.384 2.197 5.303 2.197s3.839-.732 5.303-2.197c2.929-2.929 2.929-7.678 0-10.606z"/><path d="m204.607 174.796h137.11c9.649 0 17.5-7.851 17.5-17.5v-21.108c0-9.649-7.851-17.5-17.5-17.5h-22.152c-4.142 0-7.5 3.358-7.5 7.5s3.358 7.5 7.5 7.5h22.152c1.378 0 2.5 1.122 2.5 2.5v21.108c0 1.378-1.122 2.5-2.5 2.5h-137.11c-1.378 0-2.5-1.122-2.5-2.5v-21.108c0-1.378 1.122-2.5 2.5-2.5h79.031c4.142 0 7.5-3.358 7.5-7.5s-3.358-7.5-7.5-7.5h-79.031c-9.649 0-17.5 7.851-17.5 17.5v21.108c0 9.649 7.85 17.5 17.5 17.5z"/><path d="m309.443 186.611c-4.142 0-7.5 3.358-7.5 7.5s3.358 7.5 7.5 7.5h46.394c4.142 0 7.5-3.358 7.5-7.5s-3.358-7.5-7.5-7.5z"/><path d="m195.682 319.836c4.017 1.766 7.203 4.953 8.971 8.972 1.778 4.042 4.385 7.579 7.749 10.513 5.559 4.847 12.59 7.279 19.623 7.279 6.808 0 13.617-2.279 19.092-6.852 8.094-6.76 12.001-17.005 10.451-27.404-.685-4.6.352-9.085 2.918-12.63 0 0 0 0 0-.001 4.128-5.703 6.109-12.735 5.577-19.801-1.105-14.673-13.011-26.501-27.694-27.515-7.542-.517-14.931 1.786-20.797 6.495-3.359 2.695-7.63 4.031-12.011 3.762-9.47-.584-18.438 3.233-24.611 10.471-9.509 11.146-9.422 27.888.201 38.942 2.936 3.373 6.48 5.988 10.531 7.769zm.679-36.977c2.88-3.376 6.97-5.263 11.339-5.263.312 0 .625.009.939.029 8.117.504 16.045-1.998 22.321-7.035 2.918-2.342 6.605-3.49 10.376-3.229 7.3.503 13.22 6.384 13.769 13.678.271 3.586-.687 7.001-2.769 9.876-4.881 6.741-6.872 15.136-5.605 23.638.773 5.186-1.183 10.3-5.23 13.681-5.53 4.619-13.801 4.523-19.241-.22-1.689-1.474-2.994-3.239-3.877-5.247-3.283-7.465-9.201-13.383-16.664-16.665-2.012-.885-3.781-2.192-5.256-3.888-4.784-5.493-4.828-13.815-.102-19.355z"/><path d="m244.051 207.055c-4.436 4.436-6.878 10.333-6.878 16.605s2.443 12.17 6.878 16.605c4.578 4.578 10.591 6.867 16.605 6.867 6.013 0 12.027-2.289 16.604-6.867 9.156-9.156 9.156-24.054 0-33.21s-24.053-9.156-33.209 0zm22.603 22.604c-3.308 3.308-8.689 3.307-11.997 0-1.603-1.602-2.485-3.732-2.485-5.998s.882-4.396 2.485-5.999c1.654-1.654 3.826-2.48 5.998-2.48s4.345.827 5.999 2.48c3.307 3.308 3.307 8.69 0 11.997z"/><path d="m300.828 287.306c6.014 0 12.027-2.289 16.605-6.867 9.156-9.156 9.156-24.054 0-33.21s-24.054-9.156-33.21 0-9.156 24.054 0 33.21c4.578 4.578 10.591 6.867 16.605 6.867zm-5.999-29.471c1.654-1.654 3.826-2.48 5.999-2.48s4.345.827 5.999 2.48c3.308 3.308 3.308 8.689 0 11.997s-8.689 3.308-11.997 0-3.308-8.689-.001-11.997z"/><path d="m205.176 246.044c6.013 0 12.027-2.289 16.604-6.867 9.156-9.156 9.156-24.054 0-33.209-9.155-9.156-24.053-9.156-33.209 0s-9.156 24.054 0 33.209c4.578 4.578 10.591 6.867 16.605 6.867zm-5.999-29.47c1.654-1.654 3.826-2.48 5.998-2.48s4.345.827 5.999 2.48c3.307 3.308 3.307 8.689 0 11.997-3.307 3.307-8.688 3.308-11.997 0-3.307-3.308-3.307-8.69 0-11.997z"/><path d="m301.916 342.785c6.014 0 12.027-2.289 16.605-6.867 4.436-4.436 6.878-10.333 6.878-16.605s-2.443-12.169-6.878-16.604c-9.155-9.156-24.053-9.156-33.209 0s-9.156 24.054 0 33.209c4.577 4.578 10.591 6.867 16.604 6.867zm-5.998-29.47c1.654-1.654 3.826-2.48 5.998-2.48s4.345.827 5.999 2.481c1.603 1.602 2.485 3.732 2.485 5.998s-.882 4.396-2.485 5.998c-3.308 3.308-8.689 3.308-11.997 0s-3.307-8.689 0-11.997z"/></g></g></g></svg>