<svg id="Capa_1" enable-background="new 0 0 512.021 512.021" height="512" viewBox="0 0 512.021 512.021" width="512" xmlns="http://www.w3.org/2000/svg"><g><g><path d="m495.691 41.532c-18.778-32.524-60.366-43.668-92.89-24.89l-109.182 63.037c-5.461 3.153-11.386 5.384-17.522 6.836-12.473 2.953-24.71 7.921-36.263 15.038-21.478 13.231-37.529 32.204-47.307 53.812l-42.034 24.268c-9.087 5.247-12.201 16.867-6.954 25.954 5.247 9.087 16.867 12.201 25.954 6.954l11.987-6.92c-.148 19.672 4.406 39.599 14.156 58.028 32.784 61.969 110.108 83.848 170.281 49.108 39.455-22.779 61.51-64.115 61.515-106.618.002-29.14 16.034-55.934 41.27-70.504l2.1-1.212c32.523-18.779 43.667-60.367 24.889-92.891zm-40.508 66.328-34.864 20.129c-17.747 10.246-40.438 4.166-50.685-13.581-10.246-17.746-4.166-40.438 13.581-50.684l34.864-20.129c17.747-10.246 40.438-4.166 50.685 13.581 10.246 17.746 4.166 40.438-13.581 50.684z" fill="#9e9797"/><g><path d="m495.691 41.532c-15.275-26.457-45.643-38.763-73.948-32.328 17.868 4.03 34.067 15.214 43.948 32.328 18.778 32.524 7.634 74.112-24.89 92.89l-2.1 1.212c-25.236 14.57-41.268 41.364-41.27 70.504-.004 42.503-22.06 83.839-61.515 106.618-14.738 8.509-30.506 13.613-46.396 15.572 25.581 3.141 52.356-1.692 76.396-15.572 39.455-22.779 61.51-64.115 61.515-106.618.002-29.14 16.034-55.934 41.27-70.504l2.1-1.212c32.524-18.778 43.668-60.366 24.89-92.89z" fill="#766e6e"/></g><circle cx="300.834" cy="208.304" fill="#766e6e" r="87.18"/><path d="m376.334 164.714c-11.898-20.608-30.943-34.506-52.194-40.401 8.734 6.743 16.335 15.253 22.194 25.401 24.074 41.698 9.788 95.016-31.91 119.09-21.089 12.176-45.147 14.525-66.895 8.492 27.154 20.963 65.346 24.723 96.895 6.508 41.698-24.075 55.984-77.393 31.91-119.09z" fill="#5b5555"/><g><path d="m81.411 504.521c-8.284 0-15-6.716-15-15v-27c0-8.284 6.716-15 15-15 8.284 0 15 6.716 15 15v27c0 8.284-6.715 15-15 15z" fill="#9e9797"/></g></g><path d="m501.871 37.782c-10.083-17.465-26.364-29.958-45.844-35.178-19.479-5.219-39.825-2.541-57.291 7.543l-109.181 63.037c-4.607 2.659-9.822 4.689-15.5 6.033-13.556 3.209-26.498 8.575-38.469 15.95-21.409 13.189-38.371 32.134-49.179 54.889l-39.979 23.082c-9.526 5.464-14.764 16.661-12.874 27.449l-75.378 49.225c-20.577 13.439-30.666 38.551-25.104 62.49 2.771 11.891 9.049 22.462 18.158 30.571 9.117 8.113 20.343 13.128 32.465 14.5l251.859 28.46c20.986 2.373 36.813 20.093 36.813 41.218 0 11.071-4.313 21.487-12.143 29.326-7.832 7.831-18.247 12.144-29.327 12.144h-227.3v-6c0-12.406-10.094-22.5-22.5-22.5s-22.5 10.094-22.5 22.5v6h-9.416c-3.576-11.535-14.68-18.85-26.856-17.504-11.568 1.278-20.892 10.602-22.17 22.17-.789 7.145 1.492 14.294 6.258 19.615 4.769 5.325 11.602 8.379 18.746 8.379 4.143 0 7.5-3.357 7.5-7.5s-3.357-7.5-7.5-7.5c-6 0-10.752-5.386-10.094-11.348.505-4.572 4.334-8.401 8.906-8.906 5.106-.572 9.736 2.599 11.02 7.515 1.548 5.935 6.914 10.079 13.051 10.079h10.556v6c0 12.406 10.094 22.5 22.5 22.5s22.5-10.094 22.5-22.5v-6h227.302c15.086 0 29.269-5.873 39.937-16.54 10.661-10.675 16.533-24.855 16.533-39.93 0-28.764-21.55-52.891-50.128-56.122l-251.858-28.46c-9.026-1.022-17.387-4.757-24.177-10.8-6.783-6.038-11.459-13.912-13.521-22.766-4.142-17.824 3.372-36.524 18.695-46.533l73.887-48.252c8.449 9.121 23.031 11.384 33.934 4.185 1.561 17.045 6.487 33.723 14.491 48.853 23.183 43.819 68.055 69.666 115.312 69.664 13.303 0 26.799-2.049 40.047-6.322 3.942-1.271 6.107-5.498 4.836-9.439-1.271-3.942-5.501-6.11-9.439-4.836-53.375 17.214-111.197-6.371-137.496-56.081-8.833-16.696-13.428-35.529-13.285-54.463.02-2.689-1.401-5.185-3.726-6.538-2.327-1.354-5.197-1.359-7.524-.014l-11.986 6.921c-5.49 3.171-12.538 1.282-15.709-4.21-3.129-5.419-1.223-12.607 4.209-15.709l42.034-24.269c1.358-.784 2.437-1.975 3.083-3.403 9.506-21.008 24.862-38.477 44.407-50.518 10.605-6.533 22.063-11.286 34.056-14.125 7.099-1.68 13.674-4.25 19.546-7.64l109.182-63.036c13.996-8.081 30.3-10.227 45.909-6.044 15.609 4.182 28.655 14.193 36.735 28.188s10.227 30.299 6.044 45.908c-4.4 16.419-15.581 29.457-30.288 37.948-27.767 16.031-45.018 45.535-45.021 76.999-.004 41.19-22.138 79.555-57.765 100.123-3.587 2.071-4.816 6.658-2.745 10.245 2.07 3.588 6.66 4.814 10.245 2.745 40.252-23.238 65.261-66.58 65.265-113.111.003-26.123 14.38-50.65 37.52-64.01 18.164-10.486 31.82-26.689 37.278-47.058 5.217-19.478 2.538-39.824-7.546-57.289zm-413.274 451.739c0 4.136-3.364 7.5-7.5 7.5s-7.5-3.364-7.5-7.5v-27c0-4.136 3.364-7.5 7.5-7.5s7.5 3.364 7.5 7.5zm172.083-350.222c3.581-2.067 7.338-3.868 11.165-5.35 3.862-1.496 5.78-5.84 4.285-9.703-1.496-3.861-5.838-5.781-9.703-4.285-4.543 1.76-9.001 3.896-13.247 6.348-45.212 26.104-60.758 84.123-34.654 129.335 25.585 44.313 84.521 60.527 129.334 34.654 44.487-25.684 60.197-85.094 34.655-129.334-17.908-31.019-51.257-49.133-87.058-47.223-4.137.218-7.313 3.748-7.094 7.885.218 4.138 3.737 7.34 7.885 7.094 30.117-1.583 58.204 13.638 73.276 39.744 21.498 37.237 8.38 87.167-29.165 108.844-38.577 22.272-87.082 8.528-108.844-29.164-21.967-38.05-8.884-86.877 29.165-108.845zm129.229-.359c3.843 1.03 7.741 1.539 11.616 1.539 7.729 0 15.357-2.027 22.229-5.995l34.864-20.128c10.317-5.957 17.698-15.576 20.781-27.084 3.084-11.508 1.501-23.528-4.456-33.846-5.956-10.318-15.574-17.699-27.083-20.782-11.508-3.085-23.528-1.5-33.846 4.456l-34.864 20.129c-21.3 12.297-28.623 39.63-16.326 60.93 5.959 10.317 15.578 17.698 27.085 20.781zm-3.257-68.721 34.864-20.129c4.562-2.634 9.624-3.979 14.754-3.979 2.571 0 5.159.339 7.71 1.021 7.638 2.047 14.021 6.945 17.975 13.794 8.162 14.137 3.302 32.277-10.835 40.439l-34.864 20.128c-14.137 8.162-32.278 3.301-40.439-10.835-8.162-14.136-3.302-32.277 10.835-40.439z"/></g></svg>