<svg id="Capa_1" enable-background="new 0 0 512.013 512.013" height="512" viewBox="0 0 512.013 512.013" width="512" xmlns="http://www.w3.org/2000/svg"><g><g><g fill="#fea3c6"><path d="m429.099 461.963-38.013-7.162c-4.856-.915-9.652 1.854-11.288 6.517l-12.804 36.501c-2.83 8.067-13.822 9.094-18.096 1.69l-122.384-211.973 90.713-52.373 122.383 211.972c4.275 7.404-2.11 16.41-10.511 14.828z"/><path d="m82.914 461.963 38.013-7.162c4.856-.915 9.652 1.854 11.288 6.517l12.804 36.501c2.83 8.067 13.822 9.094 18.097 1.69l122.383-211.973-90.713-52.373-122.383 211.972c-4.275 7.404 2.11 16.41 10.511 14.828z"/></g><g><g><path d="m194.785 235.163-62.628 108.475c3.354 1.086 6.416 2.223 7.744 3.19 2.117 1.541 6.409 7.817 9.249 11.971 8.263 12.084 19.579 28.635 39.639 35.148 5.379 1.746 11.117 2.631 17.056 2.631 6.374 0 12.404-.992 18.099-2.425l61.556-106.617z" fill="#fe76a8"/><path d="m317.228 235.163-90.713 52.373 61.556 106.618c5.695 1.433 11.727 2.424 18.102 2.424 5.938 0 11.677-.885 17.054-2.631 20.06-6.514 31.376-23.064 39.639-35.149 2.839-4.153 7.131-10.43 9.247-11.971 1.329-.967 4.391-2.104 7.745-3.19z" fill="#fe76a8"/><path d="m443.506 187.044c0 19.148-22.543 34.499-28.153 51.777-5.814 17.907 3.199 43.539-7.649 58.444-10.956 15.054-38.191 14.35-53.246 25.306-14.905 10.848-22.591 37.028-40.499 42.842-17.278 5.61-38.806-10.869-57.954-10.869s-40.676 16.479-57.954 10.869c-17.907-5.814-25.593-31.995-40.499-42.842-15.054-10.956-42.29-10.252-53.246-25.306-10.848-14.905-1.835-40.537-7.649-58.444-5.61-17.278-28.153-32.629-28.153-51.777s22.543-34.499 28.153-51.777c5.814-17.907-3.199-43.539 7.649-58.444 10.956-15.054 38.191-14.35 53.246-25.306 14.905-10.848 22.591-37.028 40.499-42.842 17.278-5.61 38.806 10.869 57.954 10.869s40.676-16.479 57.954-10.869c17.907 5.814 25.593 31.995 40.499 42.842 15.054 10.956 42.29 10.252 53.246 25.306 10.848 14.905 1.835 40.537 7.649 58.444 5.61 17.278 28.153 32.629 28.153 51.777z" fill="#fea3c6"/></g><circle cx="256.006" cy="187.044" fill="#fff5c6" r="137.5"/><path d="m337.027 76.024c16.639 22.738 26.479 50.75 26.479 81.021 0 75.818-61.683 137.5-137.5 137.5-30.271 0-58.282-9.84-81.021-26.479 25.036 34.213 65.474 56.479 111.021 56.479 75.817 0 137.5-61.682 137.5-137.5 0-45.548-22.266-85.986-56.479-111.021z" fill="#fee45a"/><g fill="#d78878"><g><ellipse cx="227.883" cy="137.596" rx="13.344" ry="18.977" transform="matrix(.992 -.124 .124 .992 -15.314 29.344)"/><ellipse cx="284.13" cy="137.596" rx="18.977" ry="13.344" transform="matrix(.124 -.992 .992 .124 112.337 402.453)"/></g><g><ellipse cx="186.166" cy="179.781" rx="13.344" ry="18.977" transform="matrix(.707 -.707 .707 .707 -72.598 184.296)"/><ellipse cx="325.846" cy="181.131" rx="18.977" ry="13.344" transform="matrix(.707 -.707 .707 .707 -32.64 283.46)"/></g><path d="m266.441 248.735c8.881 8.881 23.28 8.881 32.161 0 8.202-8.202 8.917-21.262 1.659-30.31l-19.552-24.375c-12.677-15.804-36.729-15.804-49.405 0l-19.552 24.375c-7.258 9.048-6.543 22.108 1.659 30.31 8.881 8.881 23.28 8.881 32.161 0 5.763-5.762 15.106-5.762 20.869 0z"/></g></g></g><path d="m224.597 111.324c-13.134 1.651-18.952 16.417-17.397 28.858 1.476 11.81 9.81 23.816 21.875 23.816 12.963 0 21.397-13.542 19.492-28.988-1.843-14.732-12.361-25.145-23.97-23.686zm4.71 37.66c-3.905.489-6.731-6.731-7.223-10.663-.47-3.757.255-11.612 4.374-12.113.076-.009.154-.014.234-.014 2.34 0 6.162 4.058 6.989 10.677.857 6.845-2.065 11.824-4.374 12.113zm171.699 38.06c0-79.953-65.047-145-145-145s-145 65.047-145 145c0 14.122 2.037 28.088 6.054 41.511 1.189 3.968 5.368 6.224 9.336 5.035 3.968-1.188 6.223-5.367 5.035-9.335-3.6-12.027-5.425-24.546-5.425-37.21 0-71.682 58.317-130 130-130s130 58.318 130 130-58.317 130-130 130c-48.021 0-91.977-26.391-114.712-68.875-1.954-3.651-6.497-5.03-10.151-3.074-3.651 1.955-5.028 6.5-3.073 10.151 25.35 47.371 74.372 76.797 127.937 76.797 79.953 0 144.999-65.047 144.999-145zm-14.658 152.845c-2.07-3.588-6.66-4.817-10.245-2.745-3.587 2.071-4.816 6.658-2.745 10.245l59.756 103.506c1.098 2.07-.312 4.043-2.629 3.694l-38.018-7.162c-8.558-1.6-16.864 3.194-19.748 11.41l-12.8 36.5c-.856 2.181-3.28 2.407-4.528.422l-73.315-126.991c11.249 3.912 22.756 7.494 34.201 3.778 12.764-4.145 20.516-15.482 28.013-26.448 4.795-7.013 9.324-13.637 14.582-17.464 5.366-3.905 13.146-6.207 21.381-8.644 12.649-3.743 25.729-7.614 33.517-18.313 7.706-10.588 7.369-24.157 7.044-37.279-.214-8.652-.417-16.825 1.674-23.262 1.952-6.013 6.781-12.268 11.895-18.89 7.792-10.093 16.625-21.532 16.625-35.203s-8.833-25.111-16.626-35.205c-5.112-6.622-9.941-12.876-11.894-18.889-2.091-6.437-1.888-14.609-1.674-23.262.325-13.122.662-26.69-7.044-37.279-7.787-10.699-20.867-14.57-33.517-18.313-8.235-2.437-16.015-4.739-21.381-8.644-5.258-3.827-9.787-10.451-14.582-17.464-7.497-10.965-15.25-22.303-28.014-26.448-12.232-3.973-24.91.497-37.169 4.82-8.289 2.922-16.118 5.683-23.101 5.683s-14.812-2.761-23.101-5.684c-12.259-4.322-24.934-8.793-37.17-4.819-12.764 4.145-20.516 15.482-28.013 26.448-4.795 7.013-9.324 13.637-14.582 17.464-5.366 3.905-13.146 6.207-21.381 8.644-12.649 3.743-25.729 7.614-33.517 18.313-7.706 10.588-7.369 24.157-7.044 37.279.214 8.652.417 16.825-1.674 23.262-1.952 6.013-6.781 12.268-11.895 18.89-7.792 10.093-16.625 21.533-16.625 35.204s8.833 25.111 16.625 35.204c5.113 6.622 9.942 12.876 11.895 18.89 2.091 6.437 1.888 14.609 1.674 23.261-.325 13.122-.662 26.69 7.044 37.279 8.741 12.01 24.226 15.438 38.112 19.694l-70.439 122.014c-3.467 5.993-3.132 13.225.873 18.874 4.006 5.649 10.72 8.359 17.518 7.073l38.002-7.159c1.228-.232 2.42.458 2.832 1.63l12.8 36.5c2.289 6.528 7.989 10.984 14.876 11.631 6.785.637 13.329-2.651 16.797-8.673l81.275-140.779c3.54-.565 6.695-.565 10.238 0l81.278 140.784c3.509 6.074 9.976 9.308 16.794 8.667 6.887-.646 12.587-5.103 14.876-11.631l12.799-36.497c.414-1.176 1.603-1.864 2.825-1.635l38.004 7.159c6.807 1.29 13.519-1.422 17.523-7.071 4.005-5.649 4.34-12.88.876-18.868zm-229.723 155.866c-1.252 1.99-3.673 1.769-4.531-.417l-12.801-36.503c-2.883-8.212-11.183-13.013-19.755-11.405l-38.016 7.161c-1.373.256-2.152-.521-2.498-1.009-.346-.487-.821-1.484-.122-2.692l71.56-123.951c7.375 4.183 11.581 10.851 17.262 19.16 7.497 10.965 15.25 22.303 28.014 26.448 11.25 3.653 22.872.167 34.201-3.779zm99.381-148.711c-9.549 0-18.974 3.323-28.088 6.537-10.36 3.653-20.146 7.102-27.549 4.699-7.9-2.565-13.906-11.349-20.264-20.647-5.303-7.755-10.786-15.775-18.139-21.125-7.457-5.427-16.858-8.209-25.95-10.899-10.724-3.173-20.852-6.17-25.645-12.756-4.713-6.476-4.453-16.97-4.178-28.081.236-9.532.48-19.389-2.401-28.266-2.757-8.488-8.619-16.081-14.289-23.424-6.941-8.991-13.498-17.483-13.498-26.037s6.557-17.046 13.498-26.037c5.67-7.343 11.532-14.936 14.289-23.424 2.882-8.876 2.638-18.734 2.401-28.266-.275-11.111-.535-21.605 4.178-28.081 4.793-6.585 14.921-9.583 25.645-12.756 9.092-2.69 18.493-5.472 25.95-10.899 7.353-5.351 12.836-13.37 18.139-21.126 6.357-9.299 12.362-18.082 20.263-20.647 7.404-2.403 17.189 1.046 27.549 4.699 9.114 3.214 18.539 6.537 28.089 6.537 9.549 0 18.974-3.323 28.088-6.537 10.36-3.653 20.146-7.103 27.549-4.699 7.9 2.565 13.906 11.349 20.264 20.647 5.303 7.755 10.786 15.775 18.139 21.125 7.457 5.427 16.858 8.209 25.95 10.899 10.724 3.173 20.852 6.17 25.645 12.756 4.713 6.476 4.453 16.97 4.178 28.081-.236 9.532-.48 19.39 2.401 28.266 2.757 8.487 8.619 16.081 14.288 23.423 6.942 8.991 13.499 17.483 13.499 26.038 0 8.554-6.557 17.046-13.498 26.036-5.67 7.343-11.532 14.937-14.289 23.424-2.882 8.876-2.638 18.734-2.401 28.266.275 11.111.535 21.605-4.178 28.081-4.793 6.585-14.921 9.583-25.645 12.756-9.092 2.69-18.493 5.472-25.95 10.899-7.353 5.351-12.836 13.37-18.139 21.126-6.357 9.299-12.362 18.082-20.263 20.647-7.4 2.405-17.189-1.046-27.549-4.699-9.114-3.212-18.539-6.536-28.089-6.536zm31.41-235.72c-11.592-1.455-22.128 8.954-23.97 23.685-1.841 14.731 5.801 27.408 17.398 28.858 6.108.764 11.987-1.735 16.535-6.744 3.975-4.377 6.615-10.394 7.434-16.941s-.258-13.029-3.032-18.25c-3.188-5.998-8.424-9.865-14.365-10.608zm2.512 26.998c-.487 3.891-3.02 11.188-7.223 10.662-2.309-.289-5.23-5.268-4.375-12.113.856-6.846 4.922-10.946 7.224-10.663 3.527.435 4.865 8.187 4.374 12.114zm-122.484 22.737c-9.251 9.251-4.969 24.632 3.983 33.46h.001c4.665 4.667 10.442 7.795 16.267 8.81 6.186 1.078 12.885-.519 17.192-4.827 9.166-9.166 4.739-24.741-3.982-33.462-10.497-10.495-25.195-12.246-33.461-3.981zm26.837 26.837c-.722.722-2.222.968-4.011.656-2.769-.482-5.77-2.173-8.235-4.639 0 0 0 0-.001-.001-2.466-2.465-4.156-5.467-4.639-8.236-.313-1.789-.066-3.289.655-4.011.509-.509 1.406-.788 2.548-.788 2.555 0 6.33 1.399 9.701 4.771 2.466 2.465 4.156 5.467 4.639 8.236.312 1.79.067 3.289-.657 4.012zm31.172 1.462-19.552 24.375c-9.668 12.053-8.72 29.381 2.206 40.306 5.712 5.712 13.307 8.858 21.385 8.858 8.077 0 15.672-3.146 21.384-8.858 1.37-1.371 3.192-2.125 5.131-2.125s3.761.755 5.131 2.125c5.712 5.712 13.307 8.858 21.384 8.858 8.078 0 15.673-3.146 21.384-8.858 10.927-10.925 11.875-28.253 2.207-40.306l-19.552-24.375c-7.474-9.317-18.61-14.66-30.554-14.66s-23.081 5.343-30.554 14.66zm49.406 9.386 19.552 24.375c4.873 6.075 4.395 14.808-1.112 20.314-2.878 2.879-6.706 4.464-10.777 4.464-4.07 0-7.898-1.585-10.776-4.464-4.34-4.339-10.039-6.508-15.738-6.508s-11.399 2.169-15.738 6.508c-2.878 2.879-6.706 4.464-10.776 4.464-4.071 0-7.899-1.585-10.778-4.464-5.506-5.506-5.984-14.239-1.111-20.314l19.552-24.375c4.611-5.749 11.483-9.046 18.853-9.046s14.238 3.297 18.849 9.046zm32.266 1.108c3.377 3.377 8.047 5.18 13.194 5.18 1.307 0 2.645-.116 3.999-.353 5.824-1.015 11.602-4.144 16.267-8.81h.001c4.666-4.666 7.795-10.443 8.81-16.267 1.167-6.692-.593-12.959-4.827-17.193-8.265-8.264-22.962-6.515-33.46 3.982-4.667 4.667-7.796 10.444-8.811 16.268-1.167 6.693.593 12.96 4.827 17.193zm9.95-14.618c.482-2.769 2.173-5.771 4.639-8.236 3.372-3.372 7.147-4.771 9.701-4.771 1.142 0 2.039.28 2.547.788.723.723.969 2.222.656 4.011-.482 2.769-2.173 5.771-4.639 8.236-.001 0-.001 0-.001.001-2.466 2.465-5.467 4.156-8.235 4.639-1.79.312-3.289.066-4.012-.657s-.968-2.222-.656-4.011z"/></g></svg>