<svg id="Capa_1" enable-background="new 0 0 512 512" height="512" viewBox="0 0 512 512" width="512" xmlns="http://www.w3.org/2000/svg"><g><g><g><path d="m255.891 7.484c-137.018.058-249.831 114.164-248.394 251.174.48 45.736 13.327 88.502 35.338 125.135 1.483 2.469 1.874 5.443 1.128 8.225l-23.021 85.915c-2.135 7.968 5.156 15.258 13.124 13.124l85.915-23.021c2.782-.745 5.756-.355 8.225 1.128 36.633 22.011 79.398 34.858 125.133 35.338 137.011 1.438 251.117-111.374 251.176-248.392.061-137.338-111.285-248.685-248.624-248.626z" fill="#78d090"/></g><g><path d="m398.973 52.717c28.322 40.195 45.033 89.16 45.232 142.022.516 137.563-109.61 248.737-247.172 249.464-57.7.305-110.856-19.067-153.178-51.779l-22.912 85.509c-2.135 7.968 5.156 15.258 13.124 13.124l85.915-23.021c2.782-.745 5.756-.355 8.225 1.128 36.576 21.976 79.264 34.818 124.918 35.336 137.429 1.559 250.773-109.926 251.389-247.362.378-84.493-41.417-159.239-105.541-204.421z" fill="#6ec186"/></g></g><g><path d="m394.017 329.186-45.312-45.312c-7.845-7.845-20.565-7.845-28.41 0l-24.748 24.748c-6.794 6.794-10.346 16.176-9.756 25.765l.324 5.267c.085 1.376-1.158 2.473-2.509 2.197-11.178-2.288-21.829-7.747-30.483-16.401l-64.874-64.874c-8.654-8.654-14.113-19.305-16.401-30.483-.276-1.351.82-2.593 2.197-2.509l5.267.324c9.59.59 18.972-2.963 25.765-9.756l24.748-24.748c7.845-7.845 7.845-20.565 0-28.41l-45.312-45.312c-7.845-7.845-20.565-7.845-28.41 0-5.63 5.593-12.529 12.231-16.923 18.756-41.305 47.628-39.335 120.025 5.923 165.283l64.874 64.874c45.258 45.258 117.655 47.229 165.283 5.923 6.509-4.379 13.18-11.308 18.756-16.923 7.846-7.844 7.846-20.564.001-28.409z" fill="#5e54ac"/></g><g><g><path d="m394.017 329.186-20.262-20.262c3.536 7.624 2.183 16.956-4.105 23.245-5.722 5.762-12.567 12.872-19.246 17.365-42.094 36.506-103.041 40.066-148.811 10.678l8.384 8.384c45.258 45.258 117.655 47.228 165.283 5.923 6.509-4.379 13.18-11.308 18.756-16.923 7.846-7.845 7.846-20.565.001-28.41z" fill="#524798"/></g></g><g><path d="m295.891 411.485c-33.154 0-66.234-12.626-91.205-37.597l-64.874-64.873c-13.574-13.575-23.717-29.573-30.145-47.552-1.392-3.892.635-8.176 4.527-9.567s8.175.636 9.567 4.527c5.677 15.877 14.639 30.011 26.635 42.007l64.874 64.873c42.062 42.063 110.185 44.505 155.088 5.562 6.194-4.21 12.619-10.708 18.35-16.543 4.933-4.934 4.933-12.931.018-17.845l-45.312-45.311c-2.381-2.382-5.546-3.692-8.914-3.692-3.367 0-6.532 1.311-8.913 3.692l-24.748 24.748c-5.275 5.274-8.037 12.569-7.578 20.014l.324 5.267c.544 6.097-5.518 11.379-11.48 9.988-13.021-2.664-24.874-9.041-34.273-18.44l-64.874-64.874c-9.398-9.397-15.775-21.25-18.441-34.274-1.392-5.961 3.896-12.026 9.988-11.478l5.266.323c7.441.458 14.739-2.303 20.014-7.578l24.748-24.749c2.381-2.381 3.692-5.546 3.692-8.913s-1.312-6.532-3.692-8.912l-45.312-45.312c-4.915-4.914-12.911-4.916-17.827 0-5.835 5.732-12.332 12.15-16.561 18.368-19.985 23.044-29.72 52.594-27.411 83.205.31 4.122-2.779 7.715-6.9 8.025-4.137.299-7.715-2.778-8.025-6.899-2.6-34.473 8.315-67.767 30.737-93.8 4.434-6.466 10.674-12.646 16.193-18.111 10.088-11.811 29.567-12.68 40.378-1.373l45.312 45.312c5.208 5.208 8.076 12.132 8.076 19.497 0 7.366-2.868 14.289-8.076 19.498l-24.748 24.749c-7.71 7.71-18.162 12.011-28.998 12.011-.1 0-.2 0-.3-.001 2.601 7.438 6.838 14.199 12.469 19.829l64.874 64.874c5.631 5.631 12.393 9.869 19.83 12.47-.08-10.944 4.229-21.517 12.01-29.298l24.748-24.748c5.208-5.207 12.132-8.075 19.497-8.075s14.289 2.868 19.497 8.075l45.312 45.311c5.208 5.208 8.076 12.133 8.076 19.498s-2.868 14.289-8.076 19.498c-5.965 6.004-12.463 12.755-19.483 17.577-24.091 20.747-54.043 31.017-83.934 31.017z"/></g><g><g><path d="m248.487 139.508c-4.053 0-7.385-3.238-7.478-7.311-.101-4.403-1.868-8.539-4.976-11.646-3.107-3.108-7.243-4.876-11.647-4.976-4.132-.095-7.405-3.521-7.31-7.653.094-4.073 3.425-7.312 7.478-7.312.058 0 .116.001.175.002 8.272.189 16.045 3.512 21.888 9.357 5.843 5.843 9.166 13.615 9.356 21.885.095 4.133-3.178 7.559-7.31 7.654-.059-.001-.118 0-.176 0z"/></g><g><path d="m282.953 135.284c-3.86 0-7.135-2.966-7.451-6.881-.985-12.201-6.3-23.692-14.965-32.358-8.665-8.665-20.156-13.979-32.357-14.964-4.119-.332-7.19-3.942-6.857-8.062.332-4.119 3.945-7.186 8.062-6.857 15.739 1.271 30.561 8.125 41.736 19.301 11.175 11.175 18.03 25.997 19.3 41.736.333 4.12-2.737 7.729-6.857 8.062-.205.015-.409.023-.611.023z"/></g></g><g><path d="m31.21 498.923c-4.741 0-9.301-1.862-12.786-5.347-4.652-4.652-6.413-11.224-4.711-17.579l23.021-85.916c.225-.839.111-1.727-.314-2.434-23.34-38.845-35.928-83.422-36.406-128.909-.362-34.493 6.206-68.144 19.522-100.02 12.834-30.723 31.32-58.41 54.944-82.293 23.616-23.875 51.087-42.655 81.651-55.818 31.714-13.659 65.277-20.592 99.757-20.607h.11c41.373 0 82.469 10.098 118.858 29.207 35.246 18.508 66.157 45.435 89.392 77.867 2.407 3.361 1.634 8.035-1.726 10.442-3.359 2.407-8.035 1.634-10.442-1.725-45.228-63.135-118.529-100.824-196.082-100.824-.038 0-.066 0-.103 0-64.238.028-124.887 25.592-170.774 71.983-45.905 46.409-70.814 107.362-70.14 171.63.45 42.828 12.3 84.794 34.27 121.359 2.504 4.168 3.212 9.277 1.943 14.016l-23.021 85.915c-.35 2.88 1.077 4.304 3.958 3.958l85.916-23.021c4.737-1.269 9.847-.562 14.015 1.941 4.154 2.497 8.427 4.891 12.702 7.118 3.665 1.911 5.088 6.43 3.178 10.095-1.91 3.666-6.43 5.089-10.095 3.179-4.541-2.367-9.081-4.911-13.492-7.562-.706-.425-1.595-.537-2.434-.315l-85.915 23.021c-1.598.43-3.207.639-4.796.639z"/></g><g><path d="m255.963 512c-.902 0-1.799-.005-2.702-.014-29.162-.307-57.733-5.489-84.918-15.402-3.883-1.416-5.883-5.711-4.467-9.594 1.416-3.882 5.712-5.884 9.594-4.467 25.588 9.33 52.486 14.207 79.948 14.496.847.01 1.697.014 2.544.014 63.333 0 123.29-24.853 169.087-70.152 46.392-45.887 71.956-106.535 71.984-170.773.018-39.954-9.939-79.531-28.793-114.451-1.964-3.638-.607-8.177 3.03-10.141 3.636-1.963 8.177-.607 10.141 3.03 20.031 37.101 30.609 79.138 30.59 121.568-.015 34.48-6.948 68.044-20.607 99.758-13.164 30.564-31.944 58.035-55.819 81.65-23.883 23.623-51.57 42.109-82.293 54.943-31.042 12.966-63.773 19.535-97.319 19.535z"/></g></g></svg>