<svg id="Capa_1" enable-background="new 0 0 512 512" height="512" viewBox="0 0 512 512" width="512" xmlns="http://www.w3.org/2000/svg"><g clip-rule="evenodd" fill-rule="evenodd"><path d="m150.377 309.695h211.272 70.119c4.002 0 6.031 3.486 7.261 7.287l59.257 180.26c1.258 3.772-3.287 7.258-7.261 7.258h-470.024c-4.002 0-8.547-3.458-7.289-7.258l59.257-180.26c1.258-3.801 3.287-7.287 7.289-7.287z" fill="#bbec6a"/><path d="m101.696 397.596 117.913.057 16.265-25.69-49.424-14.117-126.889-.057-14.264 43.35 90.416 103.361h52.825l-89.214-102.018c-1.944-2.2-1.258-4.886 2.372-4.886z" fill="#f8f2f0"/><path d="m292.33 397.71 173.282.086-13.063-39.75-127.118-.057-35.731 17.06z" fill="#f8f2f0"/><path d="m269.233 423.4c7.689-8.23 15.436-16.917 23.097-25.69 8.175-9.344 16.293-18.832 24.183-27.976 2.944-3.915 5.917-7.83 8.918-11.745 12.234-15.946 24.697-31.834 36.217-48.294 15.379-22.004 29.042-45.065 38.075-70.612 41.392-117.163-20.295-231.04-143.725-231.583-123.43.543-185.116 114.42-143.725 231.583 9.033 25.547 22.697 48.608 38.104 70.612 11.463 16.403 23.897 32.263 36.074 48.151 3.03 3.944 6.06 7.916 9.033 11.888 7.889 9.116 15.979 18.575 24.126 27.919 7.689 8.802 15.436 17.517 23.154 25.747 13.263 14.174 13.206 14.174 26.469 0zm86.67-256.873c0 55.152-44.736 99.874-99.905 99.874s-99.905-44.722-99.905-99.874 44.736-99.874 99.905-99.874 99.905 44.722 99.905 99.874z" fill="#98bce5"/><path d="m396.665 358.018 55.884.029-13.521-41.064c-1.229-3.801-3.259-7.287-7.261-7.287h-65.317c13.379 14.601 23.698 30.89 30.215 48.322z" fill="#75db3a"/><path d="m404.64 397.767 60.972.029-13.063-39.75-55.884-.029c4.745 12.717 7.49 26.034 7.975 39.75z" fill="#e0d2ce"/><path d="m356.446 504.5h134.578c3.973 0 8.518-3.486 7.261-7.258l-32.673-99.446-60.972-.029c.057 1.429.086 2.858.086 4.286 0 38.722-18.066 74.328-48.28 102.447z" fill="#75db3a"/><path d="m255.998 266.402c31.072 0 58.828-14.202 77.151-36.435 14.207-17.26 22.754-39.35 22.754-63.44 0-38.321-21.61-71.612-53.311-88.358-13.921-7.344-29.757-11.516-46.594-11.516-55.169 0-99.905 44.722-99.905 99.874s44.736 99.875 99.905 99.875z" fill="#f8f2f0"/><path d="m361.649 309.695c15.379-22.004 29.042-45.065 38.075-70.612 38.59-109.162-12.349-215.466-119.314-229.926 10.148 21.089 18.666 44.865 25.241 70.698 30.014 17.203 50.253 49.58 50.253 86.672 0 24.09-8.547 46.179-22.754 63.44-4.173 5.087-8.833 9.745-13.921 13.888-1.686 22.89-4.745 44.922-9.09 65.84-4.802 23.033-11.091 44.665-18.695 64.525-.486 1.2-.943 2.429-1.429 3.629-7.289 18.432-15.722 35.263-25.098 50.123 1.258-1.315 2.687-2.829 4.316-4.572 7.689-8.23 15.436-16.917 23.097-25.69 8.175-9.344 16.293-18.832 24.183-27.976 2.944-3.915 5.917-7.83 8.918-11.745 12.235-15.946 24.698-31.834 36.218-48.294z" fill="#5f99d7"/><path d="m333.149 229.967c14.207-17.26 22.754-39.35 22.754-63.44 0-37.092-20.238-69.469-50.253-86.672 9.605 37.864 14.979 80.1 14.979 124.65 0 13.345-.486 26.49-1.401 39.35 5.089-4.143 9.748-8.801 13.921-13.888z" fill="#e0d2ce"/></g><path d="m505.41 494.899-32.567-99.067c-.072-.266-.157-.527-.257-.781l-12.792-38.914c-.085-.323-.185-.639-.31-.943l-13.32-40.521c-3.511-10.858-10.527-12.479-14.397-12.479h-55.994c12.407-18.926 23.347-38.876 31.022-60.612 11.152-31.547 15.382-64.383 12.233-94.958-3.092-30.013-13.265-58.009-29.419-80.961-29.628-42.095-77.067-65.414-133.645-65.663-31.175.145-59.42 7.171-83.949 20.886-23.366 13.064-42.24 31.499-56.097 54.792-2.118 3.56-.949 8.163 2.611 10.28s8.162.948 10.28-2.611c26.065-43.815 71.247-68.088 127.156-68.347 51.518.227 94.624 21.286 121.377 59.297 30.295 43.042 36.018 103.709 15.31 162.289-14.209 40.238-40.934 74.956-66.779 108.531-2.049 2.662-4.128 5.365-6.21 8.081-.043.052-.081.107-.123.16-2.97 3.874-5.948 7.779-8.87 11.668-2.355 2.729-4.729 5.487-7.117 8.262-5.552 6.451-11.187 12.993-16.854 19.48-.063.072-.129.142-.19.217-7.561 8.653-15.18 17.206-22.751 25.291l-.085.091c-2.943 3.145-5.969 6.379-7.673 7.733-1.704-1.354-4.73-4.588-7.673-7.733l-.083-.088c-13.424-14.361-27.036-30.17-40.199-45.459-2.253-2.617-4.493-5.218-6.716-7.794-5.012-6.669-10.192-13.399-15.204-19.909-9.968-12.949-20.064-26.07-29.525-39.611-.003-.004-.006-.008-.009-.013-15.066-21.564-28.518-44.194-37.245-68.909-14.378-40.7-16.34-81.572-5.674-118.198 1.158-3.977-1.126-8.14-5.104-9.298-3.977-1.16-8.14 1.127-9.298 5.104-11.55 39.659-9.499 83.709 5.931 127.387 7.676 21.737 18.616 41.689 31.023 60.615h-55.966c-4.697 0-11.009 2.157-14.414 12.445l-27.573 83.877c-.013.036-.023.073-.036.11l-31.643 96.259c-1.199 3.621-.554 7.542 1.77 10.758 2.79 3.862 7.751 6.357 12.64 6.357h234.998c4.142 0 7.5-3.358 7.5-7.5s-3.358-7.5-7.5-7.5h-64.056l-80.366-91.9 104.635.051c6.998 7.977 14.046 15.854 21.075 23.374l.085.091c7.792 8.327 12.085 12.915 18.625 12.915 6.54 0 10.834-4.588 18.626-12.915l.083-.089c7.023-7.5 14.057-15.359 21.035-23.315l164.421.082 30.148 91.706h-199.382c-4.142 0-7.5 3.358-7.5 7.5s3.358 7.5 7.5 7.5h200.095c4.874 0 9.826-2.502 12.618-6.376 2.322-3.222 2.963-7.142 1.768-10.725zm-425.321-175.561c.372-1.123.695-1.78.91-2.144h65.475c8.013 11.3 16.396 22.291 24.743 33.145l-101.303-.046zm-31.77 96.645 70.869 81.017h-97.502zm53.381-25.887c-.004 0-.012 0-.018 0-4.624.004-8.386 2.232-10.067 5.959-1.663 3.688-.863 8.053 2.063 11.364l78.338 89.581h-32.9l-85.355-97.576 11.22-34.132 117.759.053c2.266 2.966 4.526 5.939 6.745 8.894.102.135.208.268.32.396 2.273 2.634 4.564 5.294 6.87 7.972 2.153 2.501 4.322 5.017 6.497 7.538zm329.318-72.901c.21.363.525 1.017.885 2.129l10.262 31.218-101.505-.046c8.386-10.904 16.812-21.946 24.863-33.301zm-122.252 73.023c2.06-2.389 4.115-4.775 6.156-7.146 2.439-2.835 4.864-5.651 7.269-8.438.111-.129.217-.261.319-.396 2.183-2.906 4.405-5.83 6.634-8.748l117.953.053 8.135 24.747z"/><path d="m363.403 166.527c0-59.207-48.182-107.375-107.405-107.375s-107.405 48.168-107.405 107.375 48.182 107.375 107.405 107.375 107.405-48.168 107.405-107.375zm-199.809 0c0-50.936 41.453-92.375 92.405-92.375s92.405 41.439 92.405 92.375-41.453 92.375-92.405 92.375-92.405-41.439-92.405-92.375z"/></svg>